<?xml version="1.0" encoding="utf-8" standalone="no"?>
<!DOCTYPE svg PUBLIC "-//W3C//DTD SVG 1.1//EN"
  "http://www.w3.org/Graphics/SVG/1.1/DTD/svg11.dtd">
<!-- Created with matplotlib (https://matplotlib.org/) -->
<svg height="720pt" version="1.1" viewBox="0 0 1080 720" width="1080pt" xmlns="http://www.w3.org/2000/svg" xmlns:xlink="http://www.w3.org/1999/xlink">
 <defs>
  <style type="text/css">
*{stroke-linecap:butt;stroke-linejoin:round;}
  </style>
 </defs>
 <g id="figure_1">
  <g id="patch_1">
   <path d="M 0 720 
L 1080 720 
L 1080 0 
L 0 0 
z
" style="fill:#ffffff;"/>
  </g>
  <g id="axes_1">
   <g id="patch_2">
    <path d="M 135 640.8 
L 972 640.8 
L 972 86.4 
L 135 86.4 
z
" style="fill:#ffffff;"/>
   </g>
   <g id="matplotlib.axis_1">
    <g id="xtick_1">
     <g id="line2d_1">
      <path clip-path="url(#p8f9a9ad7a2)" d="M 173.045455 640.8 
L 173.045455 86.4 
" style="fill:none;stroke:#b0b0b0;stroke-linecap:square;stroke-width:0.8;"/>
     </g>
     <g id="line2d_2">
      <defs>
       <path d="M 0 0 
L 0 3.5 
" id="m15f0a84183" style="stroke:#000000;stroke-width:0.8;"/>
      </defs>
      <g>
       <use style="stroke:#000000;stroke-width:0.8;" x="173.045455" xlink:href="#m15f0a84183" y="640.8"/>
      </g>
     </g>
     <g id="text_1">
      <!-- 0 -->
      <defs>
       <path d="M 31.78125 66.40625 
Q 24.171875 66.40625 20.328125 58.90625 
Q 16.5 51.421875 16.5 36.375 
Q 16.5 21.390625 20.328125 13.890625 
Q 24.171875 6.390625 31.78125 6.390625 
Q 39.453125 6.390625 43.28125 13.890625 
Q 47.125 21.390625 47.125 36.375 
Q 47.125 51.421875 43.28125 58.90625 
Q 39.453125 66.40625 31.78125 66.40625 
z
M 31.78125 74.21875 
Q 44.046875 74.21875 50.515625 64.515625 
Q 56.984375 54.828125 56.984375 36.375 
Q 56.984375 17.96875 50.515625 8.265625 
Q 44.046875 -1.421875 31.78125 -1.421875 
Q 19.53125 -1.421875 13.0625 8.265625 
Q 6.59375 17.96875 6.59375 36.375 
Q 6.59375 54.828125 13.0625 64.515625 
Q 19.53125 74.21875 31.78125 74.21875 
z
" id="DejaVuSans-48"/>
      </defs>
      <g transform="translate(163.501705 670.595312)scale(0.3 -0.3)">
       <use xlink:href="#DejaVuSans-48"/>
      </g>
     </g>
    </g>
    <g id="xtick_2">
     <g id="line2d_3">
      <path clip-path="url(#p8f9a9ad7a2)" d="M 274.567681 640.8 
L 274.567681 86.4 
" style="fill:none;stroke:#b0b0b0;stroke-linecap:square;stroke-width:0.8;"/>
     </g>
     <g id="line2d_4">
      <g>
       <use style="stroke:#000000;stroke-width:0.8;" x="274.567681" xlink:href="#m15f0a84183" y="640.8"/>
      </g>
     </g>
     <g id="text_2">
      <!-- 200 -->
      <defs>
       <path d="M 19.1875 8.296875 
L 53.609375 8.296875 
L 53.609375 0 
L 7.328125 0 
L 7.328125 8.296875 
Q 12.9375 14.109375 22.625 23.890625 
Q 32.328125 33.6875 34.8125 36.53125 
Q 39.546875 41.84375 41.421875 45.53125 
Q 43.3125 49.21875 43.3125 52.78125 
Q 43.3125 58.59375 39.234375 62.25 
Q 35.15625 65.921875 28.609375 65.921875 
Q 23.96875 65.921875 18.8125 64.3125 
Q 13.671875 62.703125 7.8125 59.421875 
L 7.8125 69.390625 
Q 13.765625 71.78125 18.9375 73 
Q 24.125 74.21875 28.421875 74.21875 
Q 39.75 74.21875 46.484375 68.546875 
Q 53.21875 62.890625 53.21875 53.421875 
Q 53.21875 48.921875 51.53125 44.890625 
Q 49.859375 40.875 45.40625 35.40625 
Q 44.1875 33.984375 37.640625 27.21875 
Q 31.109375 20.453125 19.1875 8.296875 
z
" id="DejaVuSans-50"/>
      </defs>
      <g transform="translate(245.936431 670.595312)scale(0.3 -0.3)">
       <use xlink:href="#DejaVuSans-50"/>
       <use x="63.623047" xlink:href="#DejaVuSans-48"/>
       <use x="127.246094" xlink:href="#DejaVuSans-48"/>
      </g>
     </g>
    </g>
    <g id="xtick_3">
     <g id="line2d_5">
      <path clip-path="url(#p8f9a9ad7a2)" d="M 376.089908 640.8 
L 376.089908 86.4 
" style="fill:none;stroke:#b0b0b0;stroke-linecap:square;stroke-width:0.8;"/>
     </g>
     <g id="line2d_6">
      <g>
       <use style="stroke:#000000;stroke-width:0.8;" x="376.089908" xlink:href="#m15f0a84183" y="640.8"/>
      </g>
     </g>
     <g id="text_3">
      <!-- 400 -->
      <defs>
       <path d="M 37.796875 64.3125 
L 12.890625 25.390625 
L 37.796875 25.390625 
z
M 35.203125 72.90625 
L 47.609375 72.90625 
L 47.609375 25.390625 
L 58.015625 25.390625 
L 58.015625 17.1875 
L 47.609375 17.1875 
L 47.609375 0 
L 37.796875 0 
L 37.796875 17.1875 
L 4.890625 17.1875 
L 4.890625 26.703125 
z
" id="DejaVuSans-52"/>
      </defs>
      <g transform="translate(347.458658 670.595312)scale(0.3 -0.3)">
       <use xlink:href="#DejaVuSans-52"/>
       <use x="63.623047" xlink:href="#DejaVuSans-48"/>
       <use x="127.246094" xlink:href="#DejaVuSans-48"/>
      </g>
     </g>
    </g>
    <g id="xtick_4">
     <g id="line2d_7">
      <path clip-path="url(#p8f9a9ad7a2)" d="M 477.612135 640.8 
L 477.612135 86.4 
" style="fill:none;stroke:#b0b0b0;stroke-linecap:square;stroke-width:0.8;"/>
     </g>
     <g id="line2d_8">
      <g>
       <use style="stroke:#000000;stroke-width:0.8;" x="477.612135" xlink:href="#m15f0a84183" y="640.8"/>
      </g>
     </g>
     <g id="text_4">
      <!-- 600 -->
      <defs>
       <path d="M 33.015625 40.375 
Q 26.375 40.375 22.484375 35.828125 
Q 18.609375 31.296875 18.609375 23.390625 
Q 18.609375 15.53125 22.484375 10.953125 
Q 26.375 6.390625 33.015625 6.390625 
Q 39.65625 6.390625 43.53125 10.953125 
Q 47.40625 15.53125 47.40625 23.390625 
Q 47.40625 31.296875 43.53125 35.828125 
Q 39.65625 40.375 33.015625 40.375 
z
M 52.59375 71.296875 
L 52.59375 62.3125 
Q 48.875 64.0625 45.09375 64.984375 
Q 41.3125 65.921875 37.59375 65.921875 
Q 27.828125 65.921875 22.671875 59.328125 
Q 17.53125 52.734375 16.796875 39.40625 
Q 19.671875 43.65625 24.015625 45.921875 
Q 28.375 48.1875 33.59375 48.1875 
Q 44.578125 48.1875 50.953125 41.515625 
Q 57.328125 34.859375 57.328125 23.390625 
Q 57.328125 12.15625 50.6875 5.359375 
Q 44.046875 -1.421875 33.015625 -1.421875 
Q 20.359375 -1.421875 13.671875 8.265625 
Q 6.984375 17.96875 6.984375 36.375 
Q 6.984375 53.65625 15.1875 63.9375 
Q 23.390625 74.21875 37.203125 74.21875 
Q 40.921875 74.21875 44.703125 73.484375 
Q 48.484375 72.75 52.59375 71.296875 
z
" id="DejaVuSans-54"/>
      </defs>
      <g transform="translate(448.980885 670.595312)scale(0.3 -0.3)">
       <use xlink:href="#DejaVuSans-54"/>
       <use x="63.623047" xlink:href="#DejaVuSans-48"/>
       <use x="127.246094" xlink:href="#DejaVuSans-48"/>
      </g>
     </g>
    </g>
    <g id="xtick_5">
     <g id="line2d_9">
      <path clip-path="url(#p8f9a9ad7a2)" d="M 579.134362 640.8 
L 579.134362 86.4 
" style="fill:none;stroke:#b0b0b0;stroke-linecap:square;stroke-width:0.8;"/>
     </g>
     <g id="line2d_10">
      <g>
       <use style="stroke:#000000;stroke-width:0.8;" x="579.134362" xlink:href="#m15f0a84183" y="640.8"/>
      </g>
     </g>
     <g id="text_5">
      <!-- 800 -->
      <defs>
       <path d="M 31.78125 34.625 
Q 24.75 34.625 20.71875 30.859375 
Q 16.703125 27.09375 16.703125 20.515625 
Q 16.703125 13.921875 20.71875 10.15625 
Q 24.75 6.390625 31.78125 6.390625 
Q 38.8125 6.390625 42.859375 10.171875 
Q 46.921875 13.96875 46.921875 20.515625 
Q 46.921875 27.09375 42.890625 30.859375 
Q 38.875 34.625 31.78125 34.625 
z
M 21.921875 38.8125 
Q 15.578125 40.375 12.03125 44.71875 
Q 8.5 49.078125 8.5 55.328125 
Q 8.5 64.0625 14.71875 69.140625 
Q 20.953125 74.21875 31.78125 74.21875 
Q 42.671875 74.21875 48.875 69.140625 
Q 55.078125 64.0625 55.078125 55.328125 
Q 55.078125 49.078125 51.53125 44.71875 
Q 48 40.375 41.703125 38.8125 
Q 48.828125 37.15625 52.796875 32.3125 
Q 56.78125 27.484375 56.78125 20.515625 
Q 56.78125 9.90625 50.3125 4.234375 
Q 43.84375 -1.421875 31.78125 -1.421875 
Q 19.734375 -1.421875 13.25 4.234375 
Q 6.78125 9.90625 6.78125 20.515625 
Q 6.78125 27.484375 10.78125 32.3125 
Q 14.796875 37.15625 21.921875 38.8125 
z
M 18.3125 54.390625 
Q 18.3125 48.734375 21.84375 45.5625 
Q 25.390625 42.390625 31.78125 42.390625 
Q 38.140625 42.390625 41.71875 45.5625 
Q 45.3125 48.734375 45.3125 54.390625 
Q 45.3125 60.0625 41.71875 63.234375 
Q 38.140625 66.40625 31.78125 66.40625 
Q 25.390625 66.40625 21.84375 63.234375 
Q 18.3125 60.0625 18.3125 54.390625 
z
" id="DejaVuSans-56"/>
      </defs>
      <g transform="translate(550.503112 670.595312)scale(0.3 -0.3)">
       <use xlink:href="#DejaVuSans-56"/>
       <use x="63.623047" xlink:href="#DejaVuSans-48"/>
       <use x="127.246094" xlink:href="#DejaVuSans-48"/>
      </g>
     </g>
    </g>
    <g id="xtick_6">
     <g id="line2d_11">
      <path clip-path="url(#p8f9a9ad7a2)" d="M 680.656589 640.8 
L 680.656589 86.4 
" style="fill:none;stroke:#b0b0b0;stroke-linecap:square;stroke-width:0.8;"/>
     </g>
     <g id="line2d_12">
      <g>
       <use style="stroke:#000000;stroke-width:0.8;" x="680.656589" xlink:href="#m15f0a84183" y="640.8"/>
      </g>
     </g>
     <g id="text_6">
      <!-- 1000 -->
      <defs>
       <path d="M 12.40625 8.296875 
L 28.515625 8.296875 
L 28.515625 63.921875 
L 10.984375 60.40625 
L 10.984375 69.390625 
L 28.421875 72.90625 
L 38.28125 72.90625 
L 38.28125 8.296875 
L 54.390625 8.296875 
L 54.390625 0 
L 12.40625 0 
z
" id="DejaVuSans-49"/>
      </defs>
      <g transform="translate(642.481589 670.595312)scale(0.3 -0.3)">
       <use xlink:href="#DejaVuSans-49"/>
       <use x="63.623047" xlink:href="#DejaVuSans-48"/>
       <use x="127.246094" xlink:href="#DejaVuSans-48"/>
       <use x="190.869141" xlink:href="#DejaVuSans-48"/>
      </g>
     </g>
    </g>
    <g id="xtick_7">
     <g id="line2d_13">
      <path clip-path="url(#p8f9a9ad7a2)" d="M 782.178816 640.8 
L 782.178816 86.4 
" style="fill:none;stroke:#b0b0b0;stroke-linecap:square;stroke-width:0.8;"/>
     </g>
     <g id="line2d_14">
      <g>
       <use style="stroke:#000000;stroke-width:0.8;" x="782.178816" xlink:href="#m15f0a84183" y="640.8"/>
      </g>
     </g>
     <g id="text_7">
      <!-- 1200 -->
      <g transform="translate(744.003816 670.595312)scale(0.3 -0.3)">
       <use xlink:href="#DejaVuSans-49"/>
       <use x="63.623047" xlink:href="#DejaVuSans-50"/>
       <use x="127.246094" xlink:href="#DejaVuSans-48"/>
       <use x="190.869141" xlink:href="#DejaVuSans-48"/>
      </g>
     </g>
    </g>
    <g id="xtick_8">
     <g id="line2d_15">
      <path clip-path="url(#p8f9a9ad7a2)" d="M 883.701043 640.8 
L 883.701043 86.4 
" style="fill:none;stroke:#b0b0b0;stroke-linecap:square;stroke-width:0.8;"/>
     </g>
     <g id="line2d_16">
      <g>
       <use style="stroke:#000000;stroke-width:0.8;" x="883.701043" xlink:href="#m15f0a84183" y="640.8"/>
      </g>
     </g>
     <g id="text_8">
      <!-- 1400 -->
      <g transform="translate(845.526043 670.595312)scale(0.3 -0.3)">
       <use xlink:href="#DejaVuSans-49"/>
       <use x="63.623047" xlink:href="#DejaVuSans-52"/>
       <use x="127.246094" xlink:href="#DejaVuSans-48"/>
       <use x="190.869141" xlink:href="#DejaVuSans-48"/>
      </g>
     </g>
    </g>
    <g id="text_9">
     <!-- Number of Traces -->
     <defs>
      <path d="M 9.8125 72.90625 
L 23.09375 72.90625 
L 55.421875 11.921875 
L 55.421875 72.90625 
L 64.984375 72.90625 
L 64.984375 0 
L 51.703125 0 
L 19.390625 60.984375 
L 19.390625 0 
L 9.8125 0 
z
" id="DejaVuSans-78"/>
      <path d="M 8.5 21.578125 
L 8.5 54.6875 
L 17.484375 54.6875 
L 17.484375 21.921875 
Q 17.484375 14.15625 20.5 10.265625 
Q 23.53125 6.390625 29.59375 6.390625 
Q 36.859375 6.390625 41.078125 11.03125 
Q 45.3125 15.671875 45.3125 23.6875 
L 45.3125 54.6875 
L 54.296875 54.6875 
L 54.296875 0 
L 45.3125 0 
L 45.3125 8.40625 
Q 42.046875 3.421875 37.71875 1 
Q 33.40625 -1.421875 27.6875 -1.421875 
Q 18.265625 -1.421875 13.375 4.4375 
Q 8.5 10.296875 8.5 21.578125 
z
M 31.109375 56 
z
" id="DejaVuSans-117"/>
      <path d="M 52 44.1875 
Q 55.375 50.25 60.0625 53.125 
Q 64.75 56 71.09375 56 
Q 79.640625 56 84.28125 50.015625 
Q 88.921875 44.046875 88.921875 33.015625 
L 88.921875 0 
L 79.890625 0 
L 79.890625 32.71875 
Q 79.890625 40.578125 77.09375 44.375 
Q 74.3125 48.1875 68.609375 48.1875 
Q 61.625 48.1875 57.5625 43.546875 
Q 53.515625 38.921875 53.515625 30.90625 
L 53.515625 0 
L 44.484375 0 
L 44.484375 32.71875 
Q 44.484375 40.625 41.703125 44.40625 
Q 38.921875 48.1875 33.109375 48.1875 
Q 26.21875 48.1875 22.15625 43.53125 
Q 18.109375 38.875 18.109375 30.90625 
L 18.109375 0 
L 9.078125 0 
L 9.078125 54.6875 
L 18.109375 54.6875 
L 18.109375 46.1875 
Q 21.1875 51.21875 25.484375 53.609375 
Q 29.78125 56 35.6875 56 
Q 41.65625 56 45.828125 52.96875 
Q 50 49.953125 52 44.1875 
z
" id="DejaVuSans-109"/>
      <path d="M 48.6875 27.296875 
Q 48.6875 37.203125 44.609375 42.84375 
Q 40.53125 48.484375 33.40625 48.484375 
Q 26.265625 48.484375 22.1875 42.84375 
Q 18.109375 37.203125 18.109375 27.296875 
Q 18.109375 17.390625 22.1875 11.75 
Q 26.265625 6.109375 33.40625 6.109375 
Q 40.53125 6.109375 44.609375 11.75 
Q 48.6875 17.390625 48.6875 27.296875 
z
M 18.109375 46.390625 
Q 20.953125 51.265625 25.265625 53.625 
Q 29.59375 56 35.59375 56 
Q 45.5625 56 51.78125 48.09375 
Q 58.015625 40.1875 58.015625 27.296875 
Q 58.015625 14.40625 51.78125 6.484375 
Q 45.5625 -1.421875 35.59375 -1.421875 
Q 29.59375 -1.421875 25.265625 0.953125 
Q 20.953125 3.328125 18.109375 8.203125 
L 18.109375 0 
L 9.078125 0 
L 9.078125 75.984375 
L 18.109375 75.984375 
z
" id="DejaVuSans-98"/>
      <path d="M 56.203125 29.59375 
L 56.203125 25.203125 
L 14.890625 25.203125 
Q 15.484375 15.921875 20.484375 11.0625 
Q 25.484375 6.203125 34.421875 6.203125 
Q 39.59375 6.203125 44.453125 7.46875 
Q 49.3125 8.734375 54.109375 11.28125 
L 54.109375 2.78125 
Q 49.265625 0.734375 44.1875 -0.34375 
Q 39.109375 -1.421875 33.890625 -1.421875 
Q 20.796875 -1.421875 13.15625 6.1875 
Q 5.515625 13.8125 5.515625 26.8125 
Q 5.515625 40.234375 12.765625 48.109375 
Q 20.015625 56 32.328125 56 
Q 43.359375 56 49.78125 48.890625 
Q 56.203125 41.796875 56.203125 29.59375 
z
M 47.21875 32.234375 
Q 47.125 39.59375 43.09375 43.984375 
Q 39.0625 48.390625 32.421875 48.390625 
Q 24.90625 48.390625 20.390625 44.140625 
Q 15.875 39.890625 15.1875 32.171875 
z
" id="DejaVuSans-101"/>
      <path d="M 41.109375 46.296875 
Q 39.59375 47.171875 37.8125 47.578125 
Q 36.03125 48 33.890625 48 
Q 26.265625 48 22.1875 43.046875 
Q 18.109375 38.09375 18.109375 28.8125 
L 18.109375 0 
L 9.078125 0 
L 9.078125 54.6875 
L 18.109375 54.6875 
L 18.109375 46.1875 
Q 20.953125 51.171875 25.484375 53.578125 
Q 30.03125 56 36.53125 56 
Q 37.453125 56 38.578125 55.875 
Q 39.703125 55.765625 41.0625 55.515625 
z
" id="DejaVuSans-114"/>
      <path id="DejaVuSans-32"/>
      <path d="M 30.609375 48.390625 
Q 23.390625 48.390625 19.1875 42.75 
Q 14.984375 37.109375 14.984375 27.296875 
Q 14.984375 17.484375 19.15625 11.84375 
Q 23.34375 6.203125 30.609375 6.203125 
Q 37.796875 6.203125 41.984375 11.859375 
Q 46.1875 17.53125 46.1875 27.296875 
Q 46.1875 37.015625 41.984375 42.703125 
Q 37.796875 48.390625 30.609375 48.390625 
z
M 30.609375 56 
Q 42.328125 56 49.015625 48.375 
Q 55.71875 40.765625 55.71875 27.296875 
Q 55.71875 13.875 49.015625 6.21875 
Q 42.328125 -1.421875 30.609375 -1.421875 
Q 18.84375 -1.421875 12.171875 6.21875 
Q 5.515625 13.875 5.515625 27.296875 
Q 5.515625 40.765625 12.171875 48.375 
Q 18.84375 56 30.609375 56 
z
" id="DejaVuSans-111"/>
      <path d="M 37.109375 75.984375 
L 37.109375 68.5 
L 28.515625 68.5 
Q 23.6875 68.5 21.796875 66.546875 
Q 19.921875 64.59375 19.921875 59.515625 
L 19.921875 54.6875 
L 34.71875 54.6875 
L 34.71875 47.703125 
L 19.921875 47.703125 
L 19.921875 0 
L 10.890625 0 
L 10.890625 47.703125 
L 2.296875 47.703125 
L 2.296875 54.6875 
L 10.890625 54.6875 
L 10.890625 58.5 
Q 10.890625 67.625 15.140625 71.796875 
Q 19.390625 75.984375 28.609375 75.984375 
z
" id="DejaVuSans-102"/>
      <path d="M -0.296875 72.90625 
L 61.375 72.90625 
L 61.375 64.59375 
L 35.5 64.59375 
L 35.5 0 
L 25.59375 0 
L 25.59375 64.59375 
L -0.296875 64.59375 
z
" id="DejaVuSans-84"/>
      <path d="M 34.28125 27.484375 
Q 23.390625 27.484375 19.1875 25 
Q 14.984375 22.515625 14.984375 16.5 
Q 14.984375 11.71875 18.140625 8.90625 
Q 21.296875 6.109375 26.703125 6.109375 
Q 34.1875 6.109375 38.703125 11.40625 
Q 43.21875 16.703125 43.21875 25.484375 
L 43.21875 27.484375 
z
M 52.203125 31.203125 
L 52.203125 0 
L 43.21875 0 
L 43.21875 8.296875 
Q 40.140625 3.328125 35.546875 0.953125 
Q 30.953125 -1.421875 24.3125 -1.421875 
Q 15.921875 -1.421875 10.953125 3.296875 
Q 6 8.015625 6 15.921875 
Q 6 25.140625 12.171875 29.828125 
Q 18.359375 34.515625 30.609375 34.515625 
L 43.21875 34.515625 
L 43.21875 35.40625 
Q 43.21875 41.609375 39.140625 45 
Q 35.0625 48.390625 27.6875 48.390625 
Q 23 48.390625 18.546875 47.265625 
Q 14.109375 46.140625 10.015625 43.890625 
L 10.015625 52.203125 
Q 14.9375 54.109375 19.578125 55.046875 
Q 24.21875 56 28.609375 56 
Q 40.484375 56 46.34375 49.84375 
Q 52.203125 43.703125 52.203125 31.203125 
z
" id="DejaVuSans-97"/>
      <path d="M 48.78125 52.59375 
L 48.78125 44.1875 
Q 44.96875 46.296875 41.140625 47.34375 
Q 37.3125 48.390625 33.40625 48.390625 
Q 24.65625 48.390625 19.8125 42.84375 
Q 14.984375 37.3125 14.984375 27.296875 
Q 14.984375 17.28125 19.8125 11.734375 
Q 24.65625 6.203125 33.40625 6.203125 
Q 37.3125 6.203125 41.140625 7.25 
Q 44.96875 8.296875 48.78125 10.40625 
L 48.78125 2.09375 
Q 45.015625 0.34375 40.984375 -0.53125 
Q 36.96875 -1.421875 32.421875 -1.421875 
Q 20.0625 -1.421875 12.78125 6.34375 
Q 5.515625 14.109375 5.515625 27.296875 
Q 5.515625 40.671875 12.859375 48.328125 
Q 20.21875 56 33.015625 56 
Q 37.15625 56 41.109375 55.140625 
Q 45.0625 54.296875 48.78125 52.59375 
z
" id="DejaVuSans-99"/>
      <path d="M 44.28125 53.078125 
L 44.28125 44.578125 
Q 40.484375 46.53125 36.375 47.5 
Q 32.28125 48.484375 27.875 48.484375 
Q 21.1875 48.484375 17.84375 46.4375 
Q 14.5 44.390625 14.5 40.28125 
Q 14.5 37.15625 16.890625 35.375 
Q 19.28125 33.59375 26.515625 31.984375 
L 29.59375 31.296875 
Q 39.15625 29.25 43.1875 25.515625 
Q 47.21875 21.78125 47.21875 15.09375 
Q 47.21875 7.46875 41.1875 3.015625 
Q 35.15625 -1.421875 24.609375 -1.421875 
Q 20.21875 -1.421875 15.453125 -0.5625 
Q 10.6875 0.296875 5.421875 2 
L 5.421875 11.28125 
Q 10.40625 8.6875 15.234375 7.390625 
Q 20.0625 6.109375 24.8125 6.109375 
Q 31.15625 6.109375 34.5625 8.28125 
Q 37.984375 10.453125 37.984375 14.40625 
Q 37.984375 18.0625 35.515625 20.015625 
Q 33.0625 21.96875 24.703125 23.78125 
L 21.578125 24.515625 
Q 13.234375 26.265625 9.515625 29.90625 
Q 5.8125 33.546875 5.8125 39.890625 
Q 5.8125 47.609375 11.28125 51.796875 
Q 16.75 56 26.8125 56 
Q 31.78125 56 36.171875 55.265625 
Q 40.578125 54.546875 44.28125 53.078125 
z
" id="DejaVuSans-115"/>
     </defs>
     <g transform="translate(419.470312 703.629688)scale(0.3 -0.3)">
      <use xlink:href="#DejaVuSans-78"/>
      <use x="74.804688" xlink:href="#DejaVuSans-117"/>
      <use x="138.183594" xlink:href="#DejaVuSans-109"/>
      <use x="235.595703" xlink:href="#DejaVuSans-98"/>
      <use x="299.072266" xlink:href="#DejaVuSans-101"/>
      <use x="360.595703" xlink:href="#DejaVuSans-114"/>
      <use x="401.708984" xlink:href="#DejaVuSans-32"/>
      <use x="433.496094" xlink:href="#DejaVuSans-111"/>
      <use x="494.677734" xlink:href="#DejaVuSans-102"/>
      <use x="529.882812" xlink:href="#DejaVuSans-32"/>
      <use x="561.669922" xlink:href="#DejaVuSans-84"/>
      <use x="622.535156" xlink:href="#DejaVuSans-114"/>
      <use x="663.648438" xlink:href="#DejaVuSans-97"/>
      <use x="724.927734" xlink:href="#DejaVuSans-99"/>
      <use x="779.908203" xlink:href="#DejaVuSans-101"/>
      <use x="841.431641" xlink:href="#DejaVuSans-115"/>
     </g>
    </g>
   </g>
   <g id="matplotlib.axis_2">
    <g id="ytick_1">
     <g id="line2d_17">
      <path clip-path="url(#p8f9a9ad7a2)" d="M 135 627.278049 
L 972 627.278049 
" style="fill:none;stroke:#b0b0b0;stroke-linecap:square;stroke-width:0.8;"/>
     </g>
     <g id="line2d_18">
      <defs>
       <path d="M 0 0 
L -3.5 0 
" id="m01a8c1586a" style="stroke:#000000;stroke-width:0.8;"/>
      </defs>
      <g>
       <use style="stroke:#000000;stroke-width:0.8;" x="135" xlink:href="#m01a8c1586a" y="627.278049"/>
      </g>
     </g>
     <g id="text_10">
      <!-- 0 -->
      <g transform="translate(108.9125 638.675705)scale(0.3 -0.3)">
       <use xlink:href="#DejaVuSans-48"/>
      </g>
     </g>
    </g>
    <g id="ytick_2">
     <g id="line2d_19">
      <path clip-path="url(#p8f9a9ad7a2)" d="M 135 559.668293 
L 972 559.668293 
" style="fill:none;stroke:#b0b0b0;stroke-linecap:square;stroke-width:0.8;"/>
     </g>
     <g id="line2d_20">
      <g>
       <use style="stroke:#000000;stroke-width:0.8;" x="135" xlink:href="#m01a8c1586a" y="559.668293"/>
      </g>
     </g>
     <g id="text_11">
      <!-- 25 -->
      <defs>
       <path d="M 10.796875 72.90625 
L 49.515625 72.90625 
L 49.515625 64.59375 
L 19.828125 64.59375 
L 19.828125 46.734375 
Q 21.96875 47.46875 24.109375 47.828125 
Q 26.265625 48.1875 28.421875 48.1875 
Q 40.625 48.1875 47.75 41.5 
Q 54.890625 34.8125 54.890625 23.390625 
Q 54.890625 11.625 47.5625 5.09375 
Q 40.234375 -1.421875 26.90625 -1.421875 
Q 22.3125 -1.421875 17.546875 -0.640625 
Q 12.796875 0.140625 7.71875 1.703125 
L 7.71875 11.625 
Q 12.109375 9.234375 16.796875 8.0625 
Q 21.484375 6.890625 26.703125 6.890625 
Q 35.15625 6.890625 40.078125 11.328125 
Q 45.015625 15.765625 45.015625 23.390625 
Q 45.015625 31 40.078125 35.4375 
Q 35.15625 39.890625 26.703125 39.890625 
Q 22.75 39.890625 18.8125 39.015625 
Q 14.890625 38.140625 10.796875 36.28125 
z
" id="DejaVuSans-53"/>
      </defs>
      <g transform="translate(89.825 571.065949)scale(0.3 -0.3)">
       <use xlink:href="#DejaVuSans-50"/>
       <use x="63.623047" xlink:href="#DejaVuSans-53"/>
      </g>
     </g>
    </g>
    <g id="ytick_3">
     <g id="line2d_21">
      <path clip-path="url(#p8f9a9ad7a2)" d="M 135 492.058537 
L 972 492.058537 
" style="fill:none;stroke:#b0b0b0;stroke-linecap:square;stroke-width:0.8;"/>
     </g>
     <g id="line2d_22">
      <g>
       <use style="stroke:#000000;stroke-width:0.8;" x="135" xlink:href="#m01a8c1586a" y="492.058537"/>
      </g>
     </g>
     <g id="text_12">
      <!-- 50 -->
      <g transform="translate(89.825 503.456193)scale(0.3 -0.3)">
       <use xlink:href="#DejaVuSans-53"/>
       <use x="63.623047" xlink:href="#DejaVuSans-48"/>
      </g>
     </g>
    </g>
    <g id="ytick_4">
     <g id="line2d_23">
      <path clip-path="url(#p8f9a9ad7a2)" d="M 135 424.44878 
L 972 424.44878 
" style="fill:none;stroke:#b0b0b0;stroke-linecap:square;stroke-width:0.8;"/>
     </g>
     <g id="line2d_24">
      <g>
       <use style="stroke:#000000;stroke-width:0.8;" x="135" xlink:href="#m01a8c1586a" y="424.44878"/>
      </g>
     </g>
     <g id="text_13">
      <!-- 75 -->
      <defs>
       <path d="M 8.203125 72.90625 
L 55.078125 72.90625 
L 55.078125 68.703125 
L 28.609375 0 
L 18.3125 0 
L 43.21875 64.59375 
L 8.203125 64.59375 
z
" id="DejaVuSans-55"/>
      </defs>
      <g transform="translate(89.825 435.846437)scale(0.3 -0.3)">
       <use xlink:href="#DejaVuSans-55"/>
       <use x="63.623047" xlink:href="#DejaVuSans-53"/>
      </g>
     </g>
    </g>
    <g id="ytick_5">
     <g id="line2d_25">
      <path clip-path="url(#p8f9a9ad7a2)" d="M 135 356.839024 
L 972 356.839024 
" style="fill:none;stroke:#b0b0b0;stroke-linecap:square;stroke-width:0.8;"/>
     </g>
     <g id="line2d_26">
      <g>
       <use style="stroke:#000000;stroke-width:0.8;" x="135" xlink:href="#m01a8c1586a" y="356.839024"/>
      </g>
     </g>
     <g id="text_14">
      <!-- 100 -->
      <g transform="translate(70.7375 368.236681)scale(0.3 -0.3)">
       <use xlink:href="#DejaVuSans-49"/>
       <use x="63.623047" xlink:href="#DejaVuSans-48"/>
       <use x="127.246094" xlink:href="#DejaVuSans-48"/>
      </g>
     </g>
    </g>
    <g id="ytick_6">
     <g id="line2d_27">
      <path clip-path="url(#p8f9a9ad7a2)" d="M 135 289.229268 
L 972 289.229268 
" style="fill:none;stroke:#b0b0b0;stroke-linecap:square;stroke-width:0.8;"/>
     </g>
     <g id="line2d_28">
      <g>
       <use style="stroke:#000000;stroke-width:0.8;" x="135" xlink:href="#m01a8c1586a" y="289.229268"/>
      </g>
     </g>
     <g id="text_15">
      <!-- 125 -->
      <g transform="translate(70.7375 300.626925)scale(0.3 -0.3)">
       <use xlink:href="#DejaVuSans-49"/>
       <use x="63.623047" xlink:href="#DejaVuSans-50"/>
       <use x="127.246094" xlink:href="#DejaVuSans-53"/>
      </g>
     </g>
    </g>
    <g id="ytick_7">
     <g id="line2d_29">
      <path clip-path="url(#p8f9a9ad7a2)" d="M 135 221.619512 
L 972 221.619512 
" style="fill:none;stroke:#b0b0b0;stroke-linecap:square;stroke-width:0.8;"/>
     </g>
     <g id="line2d_30">
      <g>
       <use style="stroke:#000000;stroke-width:0.8;" x="135" xlink:href="#m01a8c1586a" y="221.619512"/>
      </g>
     </g>
     <g id="text_16">
      <!-- 150 -->
      <g transform="translate(70.7375 233.017168)scale(0.3 -0.3)">
       <use xlink:href="#DejaVuSans-49"/>
       <use x="63.623047" xlink:href="#DejaVuSans-53"/>
       <use x="127.246094" xlink:href="#DejaVuSans-48"/>
      </g>
     </g>
    </g>
    <g id="ytick_8">
     <g id="line2d_31">
      <path clip-path="url(#p8f9a9ad7a2)" d="M 135 154.009756 
L 972 154.009756 
" style="fill:none;stroke:#b0b0b0;stroke-linecap:square;stroke-width:0.8;"/>
     </g>
     <g id="line2d_32">
      <g>
       <use style="stroke:#000000;stroke-width:0.8;" x="135" xlink:href="#m01a8c1586a" y="154.009756"/>
      </g>
     </g>
     <g id="text_17">
      <!-- 175 -->
      <g transform="translate(70.7375 165.407412)scale(0.3 -0.3)">
       <use xlink:href="#DejaVuSans-49"/>
       <use x="63.623047" xlink:href="#DejaVuSans-55"/>
       <use x="127.246094" xlink:href="#DejaVuSans-53"/>
      </g>
     </g>
    </g>
    <g id="ytick_9">
     <g id="line2d_33">
      <path clip-path="url(#p8f9a9ad7a2)" d="M 135 86.4 
L 972 86.4 
" style="fill:none;stroke:#b0b0b0;stroke-linecap:square;stroke-width:0.8;"/>
     </g>
     <g id="line2d_34">
      <g>
       <use style="stroke:#000000;stroke-width:0.8;" x="135" xlink:href="#m01a8c1586a" y="86.4"/>
      </g>
     </g>
     <g id="text_18">
      <!-- 200 -->
      <g transform="translate(70.7375 97.797656)scale(0.3 -0.3)">
       <use xlink:href="#DejaVuSans-50"/>
       <use x="63.623047" xlink:href="#DejaVuSans-48"/>
       <use x="127.246094" xlink:href="#DejaVuSans-48"/>
      </g>
     </g>
    </g>
    <g id="text_19">
     <!-- Guessing Entropy -->
     <defs>
      <path d="M 59.515625 10.40625 
L 59.515625 29.984375 
L 43.40625 29.984375 
L 43.40625 38.09375 
L 69.28125 38.09375 
L 69.28125 6.78125 
Q 63.578125 2.734375 56.6875 0.65625 
Q 49.8125 -1.421875 42 -1.421875 
Q 24.90625 -1.421875 15.25 8.5625 
Q 5.609375 18.5625 5.609375 36.375 
Q 5.609375 54.25 15.25 64.234375 
Q 24.90625 74.21875 42 74.21875 
Q 49.125 74.21875 55.546875 72.453125 
Q 61.96875 70.703125 67.390625 67.28125 
L 67.390625 56.78125 
Q 61.921875 61.421875 55.765625 63.765625 
Q 49.609375 66.109375 42.828125 66.109375 
Q 29.4375 66.109375 22.71875 58.640625 
Q 16.015625 51.171875 16.015625 36.375 
Q 16.015625 21.625 22.71875 14.15625 
Q 29.4375 6.6875 42.828125 6.6875 
Q 48.046875 6.6875 52.140625 7.59375 
Q 56.25 8.5 59.515625 10.40625 
z
" id="DejaVuSans-71"/>
      <path d="M 9.421875 54.6875 
L 18.40625 54.6875 
L 18.40625 0 
L 9.421875 0 
z
M 9.421875 75.984375 
L 18.40625 75.984375 
L 18.40625 64.59375 
L 9.421875 64.59375 
z
" id="DejaVuSans-105"/>
      <path d="M 54.890625 33.015625 
L 54.890625 0 
L 45.90625 0 
L 45.90625 32.71875 
Q 45.90625 40.484375 42.875 44.328125 
Q 39.84375 48.1875 33.796875 48.1875 
Q 26.515625 48.1875 22.3125 43.546875 
Q 18.109375 38.921875 18.109375 30.90625 
L 18.109375 0 
L 9.078125 0 
L 9.078125 54.6875 
L 18.109375 54.6875 
L 18.109375 46.1875 
Q 21.34375 51.125 25.703125 53.5625 
Q 30.078125 56 35.796875 56 
Q 45.21875 56 50.046875 50.171875 
Q 54.890625 44.34375 54.890625 33.015625 
z
" id="DejaVuSans-110"/>
      <path d="M 45.40625 27.984375 
Q 45.40625 37.75 41.375 43.109375 
Q 37.359375 48.484375 30.078125 48.484375 
Q 22.859375 48.484375 18.828125 43.109375 
Q 14.796875 37.75 14.796875 27.984375 
Q 14.796875 18.265625 18.828125 12.890625 
Q 22.859375 7.515625 30.078125 7.515625 
Q 37.359375 7.515625 41.375 12.890625 
Q 45.40625 18.265625 45.40625 27.984375 
z
M 54.390625 6.78125 
Q 54.390625 -7.171875 48.1875 -13.984375 
Q 42 -20.796875 29.203125 -20.796875 
Q 24.46875 -20.796875 20.265625 -20.09375 
Q 16.0625 -19.390625 12.109375 -17.921875 
L 12.109375 -9.1875 
Q 16.0625 -11.328125 19.921875 -12.34375 
Q 23.78125 -13.375 27.78125 -13.375 
Q 36.625 -13.375 41.015625 -8.765625 
Q 45.40625 -4.15625 45.40625 5.171875 
L 45.40625 9.625 
Q 42.625 4.78125 38.28125 2.390625 
Q 33.9375 0 27.875 0 
Q 17.828125 0 11.671875 7.65625 
Q 5.515625 15.328125 5.515625 27.984375 
Q 5.515625 40.671875 11.671875 48.328125 
Q 17.828125 56 27.875 56 
Q 33.9375 56 38.28125 53.609375 
Q 42.625 51.21875 45.40625 46.390625 
L 45.40625 54.6875 
L 54.390625 54.6875 
z
" id="DejaVuSans-103"/>
      <path d="M 9.8125 72.90625 
L 55.90625 72.90625 
L 55.90625 64.59375 
L 19.671875 64.59375 
L 19.671875 43.015625 
L 54.390625 43.015625 
L 54.390625 34.71875 
L 19.671875 34.71875 
L 19.671875 8.296875 
L 56.78125 8.296875 
L 56.78125 0 
L 9.8125 0 
z
" id="DejaVuSans-69"/>
      <path d="M 18.3125 70.21875 
L 18.3125 54.6875 
L 36.8125 54.6875 
L 36.8125 47.703125 
L 18.3125 47.703125 
L 18.3125 18.015625 
Q 18.3125 11.328125 20.140625 9.421875 
Q 21.96875 7.515625 27.59375 7.515625 
L 36.8125 7.515625 
L 36.8125 0 
L 27.59375 0 
Q 17.1875 0 13.234375 3.875 
Q 9.28125 7.765625 9.28125 18.015625 
L 9.28125 47.703125 
L 2.6875 47.703125 
L 2.6875 54.6875 
L 9.28125 54.6875 
L 9.28125 70.21875 
z
" id="DejaVuSans-116"/>
      <path d="M 18.109375 8.203125 
L 18.109375 -20.796875 
L 9.078125 -20.796875 
L 9.078125 54.6875 
L 18.109375 54.6875 
L 18.109375 46.390625 
Q 20.953125 51.265625 25.265625 53.625 
Q 29.59375 56 35.59375 56 
Q 45.5625 56 51.78125 48.09375 
Q 58.015625 40.1875 58.015625 27.296875 
Q 58.015625 14.40625 51.78125 6.484375 
Q 45.5625 -1.421875 35.59375 -1.421875 
Q 29.59375 -1.421875 25.265625 0.953125 
Q 20.953125 3.328125 18.109375 8.203125 
z
M 48.6875 27.296875 
Q 48.6875 37.203125 44.609375 42.84375 
Q 40.53125 48.484375 33.40625 48.484375 
Q 26.265625 48.484375 22.1875 42.84375 
Q 18.109375 37.203125 18.109375 27.296875 
Q 18.109375 17.390625 22.1875 11.75 
Q 26.265625 6.109375 33.40625 6.109375 
Q 40.53125 6.109375 44.609375 11.75 
Q 48.6875 17.390625 48.6875 27.296875 
z
" id="DejaVuSans-112"/>
      <path d="M 32.171875 -5.078125 
Q 28.375 -14.84375 24.75 -17.8125 
Q 21.140625 -20.796875 15.09375 -20.796875 
L 7.90625 -20.796875 
L 7.90625 -13.28125 
L 13.1875 -13.28125 
Q 16.890625 -13.28125 18.9375 -11.515625 
Q 21 -9.765625 23.484375 -3.21875 
L 25.09375 0.875 
L 2.984375 54.6875 
L 12.5 54.6875 
L 29.59375 11.921875 
L 46.6875 54.6875 
L 56.203125 54.6875 
z
" id="DejaVuSans-121"/>
     </defs>
     <g transform="translate(60.498438 496.155469)rotate(-90)scale(0.3 -0.3)">
      <use xlink:href="#DejaVuSans-71"/>
      <use x="77.490234" xlink:href="#DejaVuSans-117"/>
      <use x="140.869141" xlink:href="#DejaVuSans-101"/>
      <use x="202.392578" xlink:href="#DejaVuSans-115"/>
      <use x="254.492188" xlink:href="#DejaVuSans-115"/>
      <use x="306.591797" xlink:href="#DejaVuSans-105"/>
      <use x="334.375" xlink:href="#DejaVuSans-110"/>
      <use x="397.753906" xlink:href="#DejaVuSans-103"/>
      <use x="461.230469" xlink:href="#DejaVuSans-32"/>
      <use x="493.017578" xlink:href="#DejaVuSans-69"/>
      <use x="556.201172" xlink:href="#DejaVuSans-110"/>
      <use x="619.580078" xlink:href="#DejaVuSans-116"/>
      <use x="658.789062" xlink:href="#DejaVuSans-114"/>
      <use x="699.871094" xlink:href="#DejaVuSans-111"/>
      <use x="761.052734" xlink:href="#DejaVuSans-112"/>
      <use x="824.529297" xlink:href="#DejaVuSans-121"/>
     </g>
    </g>
   </g>
   <g id="line2d_35">
    <path clip-path="url(#p8f9a9ad7a2)" d="M 173.045455 285.280859 
L 173.553066 326.739161 
L 174.060677 319.924098 
L 174.568288 340.288156 
L 175.075899 336.664273 
L 175.58351 340.80199 
L 176.091121 342.965502 
L 176.598732 354.972995 
L 177.106344 376.77038 
L 177.613955 374.282341 
L 178.121566 392.266537 
L 178.629177 395.079102 
L 179.136788 394.78162 
L 179.644399 394.889795 
L 180.15201 401.055805 
L 180.659622 394.105522 
L 181.167233 391.671571 
L 181.674844 396.99922 
L 182.182455 407.492254 
L 182.690066 401.109893 
L 183.197677 411.305444 
L 183.705288 417.660761 
L 184.2129 420.851941 
L 184.720511 423.312937 
L 185.228122 435.131122 
L 185.735733 436.537405 
L 186.243344 438.917268 
L 186.750955 443.000898 
L 187.258566 448.680117 
L 187.766177 447.814712 
L 188.273789 450.681366 
L 188.7814 448.220371 
L 189.289011 448.301502 
L 190.304233 451.871298 
L 190.811844 448.382634 
L 191.319455 450.627278 
L 192.334678 459.308371 
L 192.842289 462.337288 
L 194.365122 473.479376 
L 194.872733 476.237854 
L 195.380344 473.50642 
L 195.887956 476.56238 
L 196.395567 474.507044 
L 196.903178 479.699473 
L 197.410789 483.21518 
L 197.9184 480.15922 
L 198.426011 480.105132 
L 198.933622 482.809522 
L 199.441234 486.487493 
L 199.948845 489.245971 
L 200.456456 487.596293 
L 200.964067 489.624585 
L 201.471678 492.950985 
L 201.979289 498.197502 
L 202.4869 498.819512 
L 202.994511 496.764176 
L 203.502123 501.334595 
L 204.009734 499.252215 
L 205.024956 504.093073 
L 205.532567 506.689288 
L 206.040178 507.906263 
L 206.547789 510.313171 
L 207.055401 510.799961 
L 207.563012 509.258459 
L 208.070623 514.207493 
L 208.578234 514.694283 
L 209.085845 517.263454 
L 209.593456 517.85842 
L 210.608679 524.484176 
L 211.11629 525.538888 
L 211.623901 524.376 
L 212.131512 525.295493 
L 213.146734 530.487922 
L 213.654345 529.947044 
L 214.161956 530.05522 
L 214.669568 532.164644 
L 215.177179 532.732566 
L 215.68479 531.191063 
L 216.192401 534.869034 
L 216.700012 533.192312 
L 217.207623 535.464 
L 217.715234 536.735063 
L 218.222846 535.031298 
L 218.730457 538.276566 
L 219.745679 541.738185 
L 220.25329 544.767102 
L 220.760901 545.145717 
L 221.776123 548.63438 
L 222.283735 548.28281 
L 222.791346 550.338146 
L 223.298957 549.526829 
L 223.806568 551.446946 
L 224.314179 551.311727 
L 224.82179 549.121171 
L 225.329401 551.311727 
L 225.837013 552.961405 
L 226.344624 551.257639 
L 226.852235 551.12242 
L 227.867457 554.421776 
L 228.375068 554.611083 
L 228.882679 556.071454 
L 229.39029 554.529951 
L 230.405513 558.802888 
L 230.913124 562.237463 
L 231.420735 562.291551 
L 231.928346 563.346263 
L 232.435957 565.753171 
L 232.943568 564.400976 
L 233.45118 564.373932 
L 233.958791 565.563863 
L 234.466402 566.212917 
L 234.974013 566.158829 
L 235.481624 566.889015 
L 235.989235 569.052527 
L 236.496846 569.917932 
L 237.004458 571.270127 
L 237.512069 570.485854 
L 238.01968 571.08082 
L 238.527291 569.944976 
L 239.034902 571.107863 
L 239.542513 570.837424 
L 240.050124 571.297171 
L 240.557735 571.053776 
L 241.065347 569.485229 
L 241.572958 570.512898 
L 242.080569 570.269502 
L 242.58818 570.485854 
L 243.095791 570.188371 
L 243.603402 571.459434 
L 244.111013 571.729873 
L 244.618625 572.460059 
L 245.126236 574.650615 
L 245.633847 575.24558 
L 246.141458 576.219161 
L 247.15668 574.866966 
L 247.664291 575.164449 
L 248.171902 574.704702 
L 248.679514 575.434888 
L 249.187125 577.382049 
L 249.694736 576.273249 
L 250.202347 576.273249 
L 250.709958 577.11161 
L 251.217569 576.949346 
L 251.72518 577.5984 
L 252.232792 576.62482 
L 252.740403 576.462556 
L 253.248014 575.624195 
L 253.755625 575.056273 
L 254.263236 575.24558 
L 254.770847 576.327337 
L 255.278458 578.22041 
L 255.78607 578.869463 
L 256.293681 578.923551 
L 256.801292 578.301541 
L 257.816514 580.329834 
L 258.324125 583.493971 
L 259.339347 582.899005 
L 259.846959 585.008429 
L 260.35457 585.143649 
L 260.862181 586.279493 
L 261.369792 586.820371 
L 261.877403 589.227278 
L 262.892625 590.390166 
L 263.400237 590.444254 
L 263.907848 589.741112 
L 264.415459 590.336078 
L 264.92307 590.363122 
L 265.430681 589.849288 
L 265.938292 590.849912 
L 266.953514 592.310283 
L 267.968737 594.149268 
L 268.476348 594.581971 
L 269.49157 594.581971 
L 270.506792 596.366868 
L 271.014404 596.285737 
L 271.522015 597.529756 
L 272.029626 598.151766 
L 272.537237 597.719063 
L 273.044848 599.260566 
L 273.552459 598.314029 
L 274.06007 598.314029 
L 274.567681 598.476293 
L 275.582904 599.936663 
L 276.598126 599.476917 
L 277.105737 599.449873 
L 277.613348 598.584468 
L 278.120959 599.7744 
L 278.628571 599.179434 
L 279.136182 599.179434 
L 279.643793 598.341073 
L 280.151404 598.80082 
L 280.659015 598.016546 
L 281.166626 598.368117 
L 281.674237 599.531005 
L 282.68946 600.342322 
L 283.197071 600.423454 
L 283.704682 600.180059 
L 284.719904 600.234146 
L 285.227515 600.098927 
L 285.735126 599.720312 
L 286.242738 600.044839 
L 286.750349 600.071883 
L 287.765571 602.505834 
L 288.273182 602.397659 
L 288.780793 602.154263 
L 289.288404 601.775649 
L 289.796016 602.289483 
L 290.303627 602.019044 
L 290.811238 602.830361 
L 291.318849 602.668098 
L 291.82646 603.506459 
L 292.334071 603.72281 
L 292.841682 602.992624 
L 293.349293 603.371239 
L 293.856905 603.912117 
L 294.364516 603.533502 
L 294.872127 603.668722 
L 296.39496 604.83161 
L 297.410183 604.69639 
L 297.917794 605.18318 
L 299.440627 605.669971 
L 299.948238 607.427824 
L 300.455849 607.860527 
L 300.96346 608.617756 
L 301.978683 608.590712 
L 302.486294 608.915239 
L 302.993905 608.536624 
L 303.501516 608.455493 
L 304.009127 609.050459 
L 304.516738 608.752976 
L 305.531961 610.591961 
L 306.039572 610.916488 
L 306.547183 611.024663 
L 307.054794 611.944156 
L 307.562405 612.539122 
L 308.070016 612.376859 
L 308.577628 611.295102 
L 309.085239 611.619629 
L 309.59285 612.214595 
L 310.100461 612.539122 
L 310.608072 613.161132 
L 311.115683 613.404527 
L 311.623294 613.810185 
L 312.130905 613.161132 
L 312.638517 613.756098 
L 313.653739 613.891317 
L 314.16135 614.080624 
L 314.668961 613.404527 
L 315.684183 614.026537 
L 316.191795 614.540371 
L 317.207017 614.729678 
L 317.714628 613.756098 
L 318.222239 613.783141 
L 318.72985 613.323395 
L 319.237461 613.512702 
L 320.760295 615.027161 
L 321.267906 614.67559 
L 322.283128 614.269932 
L 322.790739 614.973073 
L 323.29835 614.946029 
L 323.805962 614.756722 
L 325.328795 615.270556 
L 325.836406 615.108293 
L 326.344017 614.783766 
L 326.851628 614.946029 
L 327.359239 614.567415 
L 328.374462 615.216468 
L 328.882073 615.189424 
L 329.389684 614.702634 
L 329.897295 615.000117 
L 330.404906 614.67559 
L 330.912517 614.729678 
L 331.420129 615.081249 
L 331.92774 615.000117 
L 332.435351 615.486907 
L 332.942962 615.054205 
L 333.450573 615.000117 
L 333.958184 615.811434 
L 334.465795 616.000741 
L 334.973407 615.703259 
L 335.481018 615.108293 
L 335.988629 615.351688 
L 336.49624 615.865522 
L 338.019073 616.4064 
L 338.526684 616.379356 
L 339.034296 616.487532 
L 339.541907 615.91961 
L 340.049518 616.135961 
L 340.557129 616.595707 
L 341.572351 616.433444 
L 342.079962 616.947278 
L 342.587574 616.595707 
L 343.602796 616.568663 
L 344.110407 616.298224 
L 344.618018 616.217093 
L 346.140851 616.487532 
L 346.648463 616.757971 
L 347.156074 616.703883 
L 347.663685 616.812059 
L 348.171296 616.730927 
L 348.678907 616.947278 
L 349.186518 616.757971 
L 350.201741 617.02841 
L 350.709352 617.488156 
L 351.216963 616.866146 
L 351.724574 616.785015 
L 352.232185 617.001366 
L 352.739796 616.595707 
L 353.247407 616.839102 
L 353.755018 616.785015 
L 354.26263 616.433444 
L 355.277852 616.785015 
L 356.293074 617.596332 
L 356.800685 617.677463 
L 357.815908 617.488156 
L 358.323519 617.596332 
L 358.83113 617.5152 
L 359.846352 617.866771 
L 360.353963 618.515824 
L 360.861574 618.569912 
L 362.384408 618.218341 
L 362.892019 618.867395 
L 363.39963 619.164878 
L 364.922463 618.867395 
L 365.430075 619.24601 
L 365.937686 619.354185 
L 366.445297 619.705756 
L 367.96813 620.111415 
L 368.475741 619.759844 
L 368.983353 620.35481 
L 369.490964 620.679337 
L 370.506186 620.138459 
L 371.013797 620.21959 
L 371.521408 620.949776 
L 372.53663 621.544741 
L 373.044242 621.301346 
L 373.551853 621.247259 
L 375.074686 621.382478 
L 375.582297 621.247259 
L 376.089908 621.625873 
L 377.105131 621.625873 
L 377.612742 622.08562 
L 380.658409 622.247883 
L 381.16602 622.08562 
L 381.673631 622.274927 
L 382.181242 622.301971 
L 383.196464 622.058576 
L 383.704075 622.004488 
L 384.211687 622.383102 
L 384.719298 622.518322 
L 385.226909 622.978068 
L 385.73452 622.951024 
L 386.242131 622.680585 
L 386.749742 622.653541 
L 387.257353 622.842849 
L 387.764965 622.896937 
L 388.272576 623.140332 
L 388.780187 623.167376 
L 389.287798 623.0592 
L 390.30302 623.248507 
L 390.810631 623.410771 
L 391.825854 623.464859 
L 392.333465 623.275551 
L 392.841076 623.248507 
L 393.856298 623.816429 
L 394.87152 623.843473 
L 395.379132 623.518946 
L 396.901965 623.464859 
L 397.409576 623.600078 
L 400.455243 623.356683 
L 401.470465 623.437815 
L 402.485687 623.410771 
L 402.993299 623.167376 
L 404.008521 623.383727 
L 404.516132 623.708254 
L 405.023743 623.627122 
L 406.546577 623.951649 
L 407.561799 624.005737 
L 408.577021 623.870517 
L 409.592243 624.168 
L 410.607466 624.222088 
L 411.622688 624.276176 
L 412.63791 624.168 
L 414.160744 624.438439 
L 414.668355 624.086868 
L 415.175966 624.059824 
L 415.683577 624.276176 
L 416.191188 624.357307 
L 416.698799 624.168 
L 417.20641 624.30322 
L 419.236855 624.140956 
L 420.252077 624.30322 
L 423.297744 624.708878 
L 424.312966 624.844098 
L 424.820577 624.952273 
L 425.8358 624.925229 
L 427.866244 624.979317 
L 428.881466 624.871141 
L 429.896689 625.168624 
L 436.495633 624.871141 
L 437.510856 624.952273 
L 438.018467 624.898185 
L 439.033689 625.060449 
L 439.5413 625.006361 
L 440.556523 625.14158 
L 441.571745 625.168624 
L 442.079356 624.898185 
L 444.617412 624.817054 
L 445.125023 625.033405 
L 446.647856 625.060449 
L 447.663078 625.033405 
L 448.678301 624.898185 
L 450.201134 624.844098 
L 451.216356 625.006361 
L 452.231579 625.060449 
L 452.73919 625.222712 
L 453.246801 625.114537 
L 454.769634 625.2768 
L 455.277245 625.222712 
L 455.784857 625.384976 
L 456.292468 625.357932 
L 456.800079 624.871141 
L 457.30769 625.006361 
L 458.830523 624.979317 
L 459.845746 625.114537 
L 460.353357 625.060449 
L 462.383801 625.493151 
L 465.429468 625.41202 
L 466.44469 625.303844 
L 469.490357 625.41202 
L 470.505579 625.466107 
L 471.013191 625.709502 
L 471.520802 625.709502 
L 472.028413 625.574283 
L 473.043635 625.601327 
L 473.551246 625.493151 
L 474.566469 625.682459 
L 475.581691 625.682459 
L 476.089302 625.817678 
L 477.612135 625.736546 
L 478.119746 625.574283 
L 479.134969 625.844722 
L 480.657802 625.790634 
L 481.165413 625.871766 
L 482.180636 625.871766 
L 488.271969 625.817678 
L 488.77958 625.709502 
L 493.348081 625.844722 
L 498.931803 625.952898 
L 500.454636 626.006985 
L 500.962248 625.871766 
L 502.992692 626.196293 
L 504.515526 626.277424 
L 505.530748 626.115161 
L 506.54597 626.223337 
L 508.068803 626.196293 
L 509.084026 626.25038 
L 511.11447 626.439688 
L 513.144915 626.331512 
L 515.68297 626.3856 
L 516.190582 626.358556 
L 516.698193 626.466732 
L 518.221026 626.466732 
L 519.236248 626.601951 
L 520.251471 626.628995 
L 522.789526 626.52082 
L 523.297137 626.628995 
L 525.835193 626.412644 
L 527.865638 626.628995 
L 538.01786 626.683083 
L 538.525472 626.764215 
L 539.033083 626.710127 
L 539.540694 626.818302 
L 542.078749 626.791259 
L 552.230972 626.87239 
L 553.246194 626.953522 
L 557.307084 626.87239 
L 558.322306 626.87239 
L 564.413639 626.764215 
L 566.444084 626.737171 
L 568.474528 626.737171 
L 578.626751 626.845346 
L 579.641973 626.87239 
L 580.657196 626.818302 
L 589.794196 626.737171 
L 591.31703 626.683083 
L 592.332252 626.628995 
L 597.915974 626.710127 
L 598.423585 626.791259 
L 598.931197 626.683083 
L 600.961641 626.737171 
L 601.976863 626.656039 
L 604.007308 626.791259 
L 607.560586 626.683083 
L 608.575808 626.710127 
L 618.728031 626.791259 
L 619.743253 626.791259 
L 633.448754 626.818302 
L 634.463976 626.980566 
L 637.002032 626.87239 
L 638.524865 626.899434 
L 647.661865 626.980566 
L 649.184699 627.061698 
L 662.382588 627.142829 
L 663.905422 627.196917 
L 666.443477 627.223961 
L 668.981533 627.169873 
L 670.504367 627.223961 
L 933.954545 627.278049 
L 933.954545 627.278049 
" style="fill:none;stroke:#1f77b4;stroke-linecap:square;stroke-width:1.5;"/>
   </g>
   <g id="patch_3">
    <path d="M 135 640.8 
L 135 86.4 
" style="fill:none;stroke:#000000;stroke-linecap:square;stroke-linejoin:miter;stroke-width:0.8;"/>
   </g>
   <g id="patch_4">
    <path d="M 972 640.8 
L 972 86.4 
" style="fill:none;stroke:#000000;stroke-linecap:square;stroke-linejoin:miter;stroke-width:0.8;"/>
   </g>
   <g id="patch_5">
    <path d="M 135 640.8 
L 972 640.8 
" style="fill:none;stroke:#000000;stroke-linecap:square;stroke-linejoin:miter;stroke-width:0.8;"/>
   </g>
   <g id="patch_6">
    <path d="M 135 86.4 
L 972 86.4 
" style="fill:none;stroke:#000000;stroke-linecap:square;stroke-linejoin:miter;stroke-width:0.8;"/>
   </g>
  </g>
 </g>
 <defs>
  <clipPath id="p8f9a9ad7a2">
   <rect height="554.4" width="837" x="135" y="86.4"/>
  </clipPath>
 </defs>
</svg>
