<?xml version="1.0" encoding="utf-8" standalone="no"?>
<!DOCTYPE svg PUBLIC "-//W3C//DTD SVG 1.1//EN"
  "http://www.w3.org/Graphics/SVG/1.1/DTD/svg11.dtd">
<!-- Created with matplotlib (https://matplotlib.org/) -->
<svg height="720pt" version="1.1" viewBox="0 0 1080 720" width="1080pt" xmlns="http://www.w3.org/2000/svg" xmlns:xlink="http://www.w3.org/1999/xlink">
 <defs>
  <style type="text/css">
*{stroke-linecap:butt;stroke-linejoin:round;}
  </style>
 </defs>
 <g id="figure_1">
  <g id="patch_1">
   <path d="M 0 720 
L 1080 720 
L 1080 0 
L 0 0 
z
" style="fill:#ffffff;"/>
  </g>
  <g id="axes_1">
   <g id="patch_2">
    <path d="M 135 640.8 
L 972 640.8 
L 972 86.4 
L 135 86.4 
z
" style="fill:#ffffff;"/>
   </g>
   <g id="matplotlib.axis_1">
    <g id="xtick_1">
     <g id="line2d_1">
      <path clip-path="url(#p2821276aa0)" d="M 173.045455 640.8 
L 173.045455 86.4 
" style="fill:none;stroke:#b0b0b0;stroke-linecap:square;stroke-width:0.8;"/>
     </g>
     <g id="line2d_2">
      <defs>
       <path d="M 0 0 
L 0 3.5 
" id="m04949230cf" style="stroke:#000000;stroke-width:0.8;"/>
      </defs>
      <g>
       <use style="stroke:#000000;stroke-width:0.8;" x="173.045455" xlink:href="#m04949230cf" y="640.8"/>
      </g>
     </g>
     <g id="text_1">
      <!-- 0 -->
      <defs>
       <path d="M 31.78125 66.40625 
Q 24.171875 66.40625 20.328125 58.90625 
Q 16.5 51.421875 16.5 36.375 
Q 16.5 21.390625 20.328125 13.890625 
Q 24.171875 6.390625 31.78125 6.390625 
Q 39.453125 6.390625 43.28125 13.890625 
Q 47.125 21.390625 47.125 36.375 
Q 47.125 51.421875 43.28125 58.90625 
Q 39.453125 66.40625 31.78125 66.40625 
z
M 31.78125 74.21875 
Q 44.046875 74.21875 50.515625 64.515625 
Q 56.984375 54.828125 56.984375 36.375 
Q 56.984375 17.96875 50.515625 8.265625 
Q 44.046875 -1.421875 31.78125 -1.421875 
Q 19.53125 -1.421875 13.0625 8.265625 
Q 6.59375 17.96875 6.59375 36.375 
Q 6.59375 54.828125 13.0625 64.515625 
Q 19.53125 74.21875 31.78125 74.21875 
z
" id="DejaVuSans-48"/>
      </defs>
      <g transform="translate(163.501705 670.595312)scale(0.3 -0.3)">
       <use xlink:href="#DejaVuSans-48"/>
      </g>
     </g>
    </g>
    <g id="xtick_2">
     <g id="line2d_3">
      <path clip-path="url(#p2821276aa0)" d="M 274.567681 640.8 
L 274.567681 86.4 
" style="fill:none;stroke:#b0b0b0;stroke-linecap:square;stroke-width:0.8;"/>
     </g>
     <g id="line2d_4">
      <g>
       <use style="stroke:#000000;stroke-width:0.8;" x="274.567681" xlink:href="#m04949230cf" y="640.8"/>
      </g>
     </g>
     <g id="text_2">
      <!-- 200 -->
      <defs>
       <path d="M 19.1875 8.296875 
L 53.609375 8.296875 
L 53.609375 0 
L 7.328125 0 
L 7.328125 8.296875 
Q 12.9375 14.109375 22.625 23.890625 
Q 32.328125 33.6875 34.8125 36.53125 
Q 39.546875 41.84375 41.421875 45.53125 
Q 43.3125 49.21875 43.3125 52.78125 
Q 43.3125 58.59375 39.234375 62.25 
Q 35.15625 65.921875 28.609375 65.921875 
Q 23.96875 65.921875 18.8125 64.3125 
Q 13.671875 62.703125 7.8125 59.421875 
L 7.8125 69.390625 
Q 13.765625 71.78125 18.9375 73 
Q 24.125 74.21875 28.421875 74.21875 
Q 39.75 74.21875 46.484375 68.546875 
Q 53.21875 62.890625 53.21875 53.421875 
Q 53.21875 48.921875 51.53125 44.890625 
Q 49.859375 40.875 45.40625 35.40625 
Q 44.1875 33.984375 37.640625 27.21875 
Q 31.109375 20.453125 19.1875 8.296875 
z
" id="DejaVuSans-50"/>
      </defs>
      <g transform="translate(245.936431 670.595312)scale(0.3 -0.3)">
       <use xlink:href="#DejaVuSans-50"/>
       <use x="63.623047" xlink:href="#DejaVuSans-48"/>
       <use x="127.246094" xlink:href="#DejaVuSans-48"/>
      </g>
     </g>
    </g>
    <g id="xtick_3">
     <g id="line2d_5">
      <path clip-path="url(#p2821276aa0)" d="M 376.089908 640.8 
L 376.089908 86.4 
" style="fill:none;stroke:#b0b0b0;stroke-linecap:square;stroke-width:0.8;"/>
     </g>
     <g id="line2d_6">
      <g>
       <use style="stroke:#000000;stroke-width:0.8;" x="376.089908" xlink:href="#m04949230cf" y="640.8"/>
      </g>
     </g>
     <g id="text_3">
      <!-- 400 -->
      <defs>
       <path d="M 37.796875 64.3125 
L 12.890625 25.390625 
L 37.796875 25.390625 
z
M 35.203125 72.90625 
L 47.609375 72.90625 
L 47.609375 25.390625 
L 58.015625 25.390625 
L 58.015625 17.1875 
L 47.609375 17.1875 
L 47.609375 0 
L 37.796875 0 
L 37.796875 17.1875 
L 4.890625 17.1875 
L 4.890625 26.703125 
z
" id="DejaVuSans-52"/>
      </defs>
      <g transform="translate(347.458658 670.595312)scale(0.3 -0.3)">
       <use xlink:href="#DejaVuSans-52"/>
       <use x="63.623047" xlink:href="#DejaVuSans-48"/>
       <use x="127.246094" xlink:href="#DejaVuSans-48"/>
      </g>
     </g>
    </g>
    <g id="xtick_4">
     <g id="line2d_7">
      <path clip-path="url(#p2821276aa0)" d="M 477.612135 640.8 
L 477.612135 86.4 
" style="fill:none;stroke:#b0b0b0;stroke-linecap:square;stroke-width:0.8;"/>
     </g>
     <g id="line2d_8">
      <g>
       <use style="stroke:#000000;stroke-width:0.8;" x="477.612135" xlink:href="#m04949230cf" y="640.8"/>
      </g>
     </g>
     <g id="text_4">
      <!-- 600 -->
      <defs>
       <path d="M 33.015625 40.375 
Q 26.375 40.375 22.484375 35.828125 
Q 18.609375 31.296875 18.609375 23.390625 
Q 18.609375 15.53125 22.484375 10.953125 
Q 26.375 6.390625 33.015625 6.390625 
Q 39.65625 6.390625 43.53125 10.953125 
Q 47.40625 15.53125 47.40625 23.390625 
Q 47.40625 31.296875 43.53125 35.828125 
Q 39.65625 40.375 33.015625 40.375 
z
M 52.59375 71.296875 
L 52.59375 62.3125 
Q 48.875 64.0625 45.09375 64.984375 
Q 41.3125 65.921875 37.59375 65.921875 
Q 27.828125 65.921875 22.671875 59.328125 
Q 17.53125 52.734375 16.796875 39.40625 
Q 19.671875 43.65625 24.015625 45.921875 
Q 28.375 48.1875 33.59375 48.1875 
Q 44.578125 48.1875 50.953125 41.515625 
Q 57.328125 34.859375 57.328125 23.390625 
Q 57.328125 12.15625 50.6875 5.359375 
Q 44.046875 -1.421875 33.015625 -1.421875 
Q 20.359375 -1.421875 13.671875 8.265625 
Q 6.984375 17.96875 6.984375 36.375 
Q 6.984375 53.65625 15.1875 63.9375 
Q 23.390625 74.21875 37.203125 74.21875 
Q 40.921875 74.21875 44.703125 73.484375 
Q 48.484375 72.75 52.59375 71.296875 
z
" id="DejaVuSans-54"/>
      </defs>
      <g transform="translate(448.980885 670.595312)scale(0.3 -0.3)">
       <use xlink:href="#DejaVuSans-54"/>
       <use x="63.623047" xlink:href="#DejaVuSans-48"/>
       <use x="127.246094" xlink:href="#DejaVuSans-48"/>
      </g>
     </g>
    </g>
    <g id="xtick_5">
     <g id="line2d_9">
      <path clip-path="url(#p2821276aa0)" d="M 579.134362 640.8 
L 579.134362 86.4 
" style="fill:none;stroke:#b0b0b0;stroke-linecap:square;stroke-width:0.8;"/>
     </g>
     <g id="line2d_10">
      <g>
       <use style="stroke:#000000;stroke-width:0.8;" x="579.134362" xlink:href="#m04949230cf" y="640.8"/>
      </g>
     </g>
     <g id="text_5">
      <!-- 800 -->
      <defs>
       <path d="M 31.78125 34.625 
Q 24.75 34.625 20.71875 30.859375 
Q 16.703125 27.09375 16.703125 20.515625 
Q 16.703125 13.921875 20.71875 10.15625 
Q 24.75 6.390625 31.78125 6.390625 
Q 38.8125 6.390625 42.859375 10.171875 
Q 46.921875 13.96875 46.921875 20.515625 
Q 46.921875 27.09375 42.890625 30.859375 
Q 38.875 34.625 31.78125 34.625 
z
M 21.921875 38.8125 
Q 15.578125 40.375 12.03125 44.71875 
Q 8.5 49.078125 8.5 55.328125 
Q 8.5 64.0625 14.71875 69.140625 
Q 20.953125 74.21875 31.78125 74.21875 
Q 42.671875 74.21875 48.875 69.140625 
Q 55.078125 64.0625 55.078125 55.328125 
Q 55.078125 49.078125 51.53125 44.71875 
Q 48 40.375 41.703125 38.8125 
Q 48.828125 37.15625 52.796875 32.3125 
Q 56.78125 27.484375 56.78125 20.515625 
Q 56.78125 9.90625 50.3125 4.234375 
Q 43.84375 -1.421875 31.78125 -1.421875 
Q 19.734375 -1.421875 13.25 4.234375 
Q 6.78125 9.90625 6.78125 20.515625 
Q 6.78125 27.484375 10.78125 32.3125 
Q 14.796875 37.15625 21.921875 38.8125 
z
M 18.3125 54.390625 
Q 18.3125 48.734375 21.84375 45.5625 
Q 25.390625 42.390625 31.78125 42.390625 
Q 38.140625 42.390625 41.71875 45.5625 
Q 45.3125 48.734375 45.3125 54.390625 
Q 45.3125 60.0625 41.71875 63.234375 
Q 38.140625 66.40625 31.78125 66.40625 
Q 25.390625 66.40625 21.84375 63.234375 
Q 18.3125 60.0625 18.3125 54.390625 
z
" id="DejaVuSans-56"/>
      </defs>
      <g transform="translate(550.503112 670.595312)scale(0.3 -0.3)">
       <use xlink:href="#DejaVuSans-56"/>
       <use x="63.623047" xlink:href="#DejaVuSans-48"/>
       <use x="127.246094" xlink:href="#DejaVuSans-48"/>
      </g>
     </g>
    </g>
    <g id="xtick_6">
     <g id="line2d_11">
      <path clip-path="url(#p2821276aa0)" d="M 680.656589 640.8 
L 680.656589 86.4 
" style="fill:none;stroke:#b0b0b0;stroke-linecap:square;stroke-width:0.8;"/>
     </g>
     <g id="line2d_12">
      <g>
       <use style="stroke:#000000;stroke-width:0.8;" x="680.656589" xlink:href="#m04949230cf" y="640.8"/>
      </g>
     </g>
     <g id="text_6">
      <!-- 1000 -->
      <defs>
       <path d="M 12.40625 8.296875 
L 28.515625 8.296875 
L 28.515625 63.921875 
L 10.984375 60.40625 
L 10.984375 69.390625 
L 28.421875 72.90625 
L 38.28125 72.90625 
L 38.28125 8.296875 
L 54.390625 8.296875 
L 54.390625 0 
L 12.40625 0 
z
" id="DejaVuSans-49"/>
      </defs>
      <g transform="translate(642.481589 670.595312)scale(0.3 -0.3)">
       <use xlink:href="#DejaVuSans-49"/>
       <use x="63.623047" xlink:href="#DejaVuSans-48"/>
       <use x="127.246094" xlink:href="#DejaVuSans-48"/>
       <use x="190.869141" xlink:href="#DejaVuSans-48"/>
      </g>
     </g>
    </g>
    <g id="xtick_7">
     <g id="line2d_13">
      <path clip-path="url(#p2821276aa0)" d="M 782.178816 640.8 
L 782.178816 86.4 
" style="fill:none;stroke:#b0b0b0;stroke-linecap:square;stroke-width:0.8;"/>
     </g>
     <g id="line2d_14">
      <g>
       <use style="stroke:#000000;stroke-width:0.8;" x="782.178816" xlink:href="#m04949230cf" y="640.8"/>
      </g>
     </g>
     <g id="text_7">
      <!-- 1200 -->
      <g transform="translate(744.003816 670.595312)scale(0.3 -0.3)">
       <use xlink:href="#DejaVuSans-49"/>
       <use x="63.623047" xlink:href="#DejaVuSans-50"/>
       <use x="127.246094" xlink:href="#DejaVuSans-48"/>
       <use x="190.869141" xlink:href="#DejaVuSans-48"/>
      </g>
     </g>
    </g>
    <g id="xtick_8">
     <g id="line2d_15">
      <path clip-path="url(#p2821276aa0)" d="M 883.701043 640.8 
L 883.701043 86.4 
" style="fill:none;stroke:#b0b0b0;stroke-linecap:square;stroke-width:0.8;"/>
     </g>
     <g id="line2d_16">
      <g>
       <use style="stroke:#000000;stroke-width:0.8;" x="883.701043" xlink:href="#m04949230cf" y="640.8"/>
      </g>
     </g>
     <g id="text_8">
      <!-- 1400 -->
      <g transform="translate(845.526043 670.595312)scale(0.3 -0.3)">
       <use xlink:href="#DejaVuSans-49"/>
       <use x="63.623047" xlink:href="#DejaVuSans-52"/>
       <use x="127.246094" xlink:href="#DejaVuSans-48"/>
       <use x="190.869141" xlink:href="#DejaVuSans-48"/>
      </g>
     </g>
    </g>
    <g id="text_9">
     <!-- Number of Traces -->
     <defs>
      <path d="M 9.8125 72.90625 
L 23.09375 72.90625 
L 55.421875 11.921875 
L 55.421875 72.90625 
L 64.984375 72.90625 
L 64.984375 0 
L 51.703125 0 
L 19.390625 60.984375 
L 19.390625 0 
L 9.8125 0 
z
" id="DejaVuSans-78"/>
      <path d="M 8.5 21.578125 
L 8.5 54.6875 
L 17.484375 54.6875 
L 17.484375 21.921875 
Q 17.484375 14.15625 20.5 10.265625 
Q 23.53125 6.390625 29.59375 6.390625 
Q 36.859375 6.390625 41.078125 11.03125 
Q 45.3125 15.671875 45.3125 23.6875 
L 45.3125 54.6875 
L 54.296875 54.6875 
L 54.296875 0 
L 45.3125 0 
L 45.3125 8.40625 
Q 42.046875 3.421875 37.71875 1 
Q 33.40625 -1.421875 27.6875 -1.421875 
Q 18.265625 -1.421875 13.375 4.4375 
Q 8.5 10.296875 8.5 21.578125 
z
M 31.109375 56 
z
" id="DejaVuSans-117"/>
      <path d="M 52 44.1875 
Q 55.375 50.25 60.0625 53.125 
Q 64.75 56 71.09375 56 
Q 79.640625 56 84.28125 50.015625 
Q 88.921875 44.046875 88.921875 33.015625 
L 88.921875 0 
L 79.890625 0 
L 79.890625 32.71875 
Q 79.890625 40.578125 77.09375 44.375 
Q 74.3125 48.1875 68.609375 48.1875 
Q 61.625 48.1875 57.5625 43.546875 
Q 53.515625 38.921875 53.515625 30.90625 
L 53.515625 0 
L 44.484375 0 
L 44.484375 32.71875 
Q 44.484375 40.625 41.703125 44.40625 
Q 38.921875 48.1875 33.109375 48.1875 
Q 26.21875 48.1875 22.15625 43.53125 
Q 18.109375 38.875 18.109375 30.90625 
L 18.109375 0 
L 9.078125 0 
L 9.078125 54.6875 
L 18.109375 54.6875 
L 18.109375 46.1875 
Q 21.1875 51.21875 25.484375 53.609375 
Q 29.78125 56 35.6875 56 
Q 41.65625 56 45.828125 52.96875 
Q 50 49.953125 52 44.1875 
z
" id="DejaVuSans-109"/>
      <path d="M 48.6875 27.296875 
Q 48.6875 37.203125 44.609375 42.84375 
Q 40.53125 48.484375 33.40625 48.484375 
Q 26.265625 48.484375 22.1875 42.84375 
Q 18.109375 37.203125 18.109375 27.296875 
Q 18.109375 17.390625 22.1875 11.75 
Q 26.265625 6.109375 33.40625 6.109375 
Q 40.53125 6.109375 44.609375 11.75 
Q 48.6875 17.390625 48.6875 27.296875 
z
M 18.109375 46.390625 
Q 20.953125 51.265625 25.265625 53.625 
Q 29.59375 56 35.59375 56 
Q 45.5625 56 51.78125 48.09375 
Q 58.015625 40.1875 58.015625 27.296875 
Q 58.015625 14.40625 51.78125 6.484375 
Q 45.5625 -1.421875 35.59375 -1.421875 
Q 29.59375 -1.421875 25.265625 0.953125 
Q 20.953125 3.328125 18.109375 8.203125 
L 18.109375 0 
L 9.078125 0 
L 9.078125 75.984375 
L 18.109375 75.984375 
z
" id="DejaVuSans-98"/>
      <path d="M 56.203125 29.59375 
L 56.203125 25.203125 
L 14.890625 25.203125 
Q 15.484375 15.921875 20.484375 11.0625 
Q 25.484375 6.203125 34.421875 6.203125 
Q 39.59375 6.203125 44.453125 7.46875 
Q 49.3125 8.734375 54.109375 11.28125 
L 54.109375 2.78125 
Q 49.265625 0.734375 44.1875 -0.34375 
Q 39.109375 -1.421875 33.890625 -1.421875 
Q 20.796875 -1.421875 13.15625 6.1875 
Q 5.515625 13.8125 5.515625 26.8125 
Q 5.515625 40.234375 12.765625 48.109375 
Q 20.015625 56 32.328125 56 
Q 43.359375 56 49.78125 48.890625 
Q 56.203125 41.796875 56.203125 29.59375 
z
M 47.21875 32.234375 
Q 47.125 39.59375 43.09375 43.984375 
Q 39.0625 48.390625 32.421875 48.390625 
Q 24.90625 48.390625 20.390625 44.140625 
Q 15.875 39.890625 15.1875 32.171875 
z
" id="DejaVuSans-101"/>
      <path d="M 41.109375 46.296875 
Q 39.59375 47.171875 37.8125 47.578125 
Q 36.03125 48 33.890625 48 
Q 26.265625 48 22.1875 43.046875 
Q 18.109375 38.09375 18.109375 28.8125 
L 18.109375 0 
L 9.078125 0 
L 9.078125 54.6875 
L 18.109375 54.6875 
L 18.109375 46.1875 
Q 20.953125 51.171875 25.484375 53.578125 
Q 30.03125 56 36.53125 56 
Q 37.453125 56 38.578125 55.875 
Q 39.703125 55.765625 41.0625 55.515625 
z
" id="DejaVuSans-114"/>
      <path id="DejaVuSans-32"/>
      <path d="M 30.609375 48.390625 
Q 23.390625 48.390625 19.1875 42.75 
Q 14.984375 37.109375 14.984375 27.296875 
Q 14.984375 17.484375 19.15625 11.84375 
Q 23.34375 6.203125 30.609375 6.203125 
Q 37.796875 6.203125 41.984375 11.859375 
Q 46.1875 17.53125 46.1875 27.296875 
Q 46.1875 37.015625 41.984375 42.703125 
Q 37.796875 48.390625 30.609375 48.390625 
z
M 30.609375 56 
Q 42.328125 56 49.015625 48.375 
Q 55.71875 40.765625 55.71875 27.296875 
Q 55.71875 13.875 49.015625 6.21875 
Q 42.328125 -1.421875 30.609375 -1.421875 
Q 18.84375 -1.421875 12.171875 6.21875 
Q 5.515625 13.875 5.515625 27.296875 
Q 5.515625 40.765625 12.171875 48.375 
Q 18.84375 56 30.609375 56 
z
" id="DejaVuSans-111"/>
      <path d="M 37.109375 75.984375 
L 37.109375 68.5 
L 28.515625 68.5 
Q 23.6875 68.5 21.796875 66.546875 
Q 19.921875 64.59375 19.921875 59.515625 
L 19.921875 54.6875 
L 34.71875 54.6875 
L 34.71875 47.703125 
L 19.921875 47.703125 
L 19.921875 0 
L 10.890625 0 
L 10.890625 47.703125 
L 2.296875 47.703125 
L 2.296875 54.6875 
L 10.890625 54.6875 
L 10.890625 58.5 
Q 10.890625 67.625 15.140625 71.796875 
Q 19.390625 75.984375 28.609375 75.984375 
z
" id="DejaVuSans-102"/>
      <path d="M -0.296875 72.90625 
L 61.375 72.90625 
L 61.375 64.59375 
L 35.5 64.59375 
L 35.5 0 
L 25.59375 0 
L 25.59375 64.59375 
L -0.296875 64.59375 
z
" id="DejaVuSans-84"/>
      <path d="M 34.28125 27.484375 
Q 23.390625 27.484375 19.1875 25 
Q 14.984375 22.515625 14.984375 16.5 
Q 14.984375 11.71875 18.140625 8.90625 
Q 21.296875 6.109375 26.703125 6.109375 
Q 34.1875 6.109375 38.703125 11.40625 
Q 43.21875 16.703125 43.21875 25.484375 
L 43.21875 27.484375 
z
M 52.203125 31.203125 
L 52.203125 0 
L 43.21875 0 
L 43.21875 8.296875 
Q 40.140625 3.328125 35.546875 0.953125 
Q 30.953125 -1.421875 24.3125 -1.421875 
Q 15.921875 -1.421875 10.953125 3.296875 
Q 6 8.015625 6 15.921875 
Q 6 25.140625 12.171875 29.828125 
Q 18.359375 34.515625 30.609375 34.515625 
L 43.21875 34.515625 
L 43.21875 35.40625 
Q 43.21875 41.609375 39.140625 45 
Q 35.0625 48.390625 27.6875 48.390625 
Q 23 48.390625 18.546875 47.265625 
Q 14.109375 46.140625 10.015625 43.890625 
L 10.015625 52.203125 
Q 14.9375 54.109375 19.578125 55.046875 
Q 24.21875 56 28.609375 56 
Q 40.484375 56 46.34375 49.84375 
Q 52.203125 43.703125 52.203125 31.203125 
z
" id="DejaVuSans-97"/>
      <path d="M 48.78125 52.59375 
L 48.78125 44.1875 
Q 44.96875 46.296875 41.140625 47.34375 
Q 37.3125 48.390625 33.40625 48.390625 
Q 24.65625 48.390625 19.8125 42.84375 
Q 14.984375 37.3125 14.984375 27.296875 
Q 14.984375 17.28125 19.8125 11.734375 
Q 24.65625 6.203125 33.40625 6.203125 
Q 37.3125 6.203125 41.140625 7.25 
Q 44.96875 8.296875 48.78125 10.40625 
L 48.78125 2.09375 
Q 45.015625 0.34375 40.984375 -0.53125 
Q 36.96875 -1.421875 32.421875 -1.421875 
Q 20.0625 -1.421875 12.78125 6.34375 
Q 5.515625 14.109375 5.515625 27.296875 
Q 5.515625 40.671875 12.859375 48.328125 
Q 20.21875 56 33.015625 56 
Q 37.15625 56 41.109375 55.140625 
Q 45.0625 54.296875 48.78125 52.59375 
z
" id="DejaVuSans-99"/>
      <path d="M 44.28125 53.078125 
L 44.28125 44.578125 
Q 40.484375 46.53125 36.375 47.5 
Q 32.28125 48.484375 27.875 48.484375 
Q 21.1875 48.484375 17.84375 46.4375 
Q 14.5 44.390625 14.5 40.28125 
Q 14.5 37.15625 16.890625 35.375 
Q 19.28125 33.59375 26.515625 31.984375 
L 29.59375 31.296875 
Q 39.15625 29.25 43.1875 25.515625 
Q 47.21875 21.78125 47.21875 15.09375 
Q 47.21875 7.46875 41.1875 3.015625 
Q 35.15625 -1.421875 24.609375 -1.421875 
Q 20.21875 -1.421875 15.453125 -0.5625 
Q 10.6875 0.296875 5.421875 2 
L 5.421875 11.28125 
Q 10.40625 8.6875 15.234375 7.390625 
Q 20.0625 6.109375 24.8125 6.109375 
Q 31.15625 6.109375 34.5625 8.28125 
Q 37.984375 10.453125 37.984375 14.40625 
Q 37.984375 18.0625 35.515625 20.015625 
Q 33.0625 21.96875 24.703125 23.78125 
L 21.578125 24.515625 
Q 13.234375 26.265625 9.515625 29.90625 
Q 5.8125 33.546875 5.8125 39.890625 
Q 5.8125 47.609375 11.28125 51.796875 
Q 16.75 56 26.8125 56 
Q 31.78125 56 36.171875 55.265625 
Q 40.578125 54.546875 44.28125 53.078125 
z
" id="DejaVuSans-115"/>
     </defs>
     <g transform="translate(419.470312 703.629688)scale(0.3 -0.3)">
      <use xlink:href="#DejaVuSans-78"/>
      <use x="74.804688" xlink:href="#DejaVuSans-117"/>
      <use x="138.183594" xlink:href="#DejaVuSans-109"/>
      <use x="235.595703" xlink:href="#DejaVuSans-98"/>
      <use x="299.072266" xlink:href="#DejaVuSans-101"/>
      <use x="360.595703" xlink:href="#DejaVuSans-114"/>
      <use x="401.708984" xlink:href="#DejaVuSans-32"/>
      <use x="433.496094" xlink:href="#DejaVuSans-111"/>
      <use x="494.677734" xlink:href="#DejaVuSans-102"/>
      <use x="529.882812" xlink:href="#DejaVuSans-32"/>
      <use x="561.669922" xlink:href="#DejaVuSans-84"/>
      <use x="622.535156" xlink:href="#DejaVuSans-114"/>
      <use x="663.648438" xlink:href="#DejaVuSans-97"/>
      <use x="724.927734" xlink:href="#DejaVuSans-99"/>
      <use x="779.908203" xlink:href="#DejaVuSans-101"/>
      <use x="841.431641" xlink:href="#DejaVuSans-115"/>
     </g>
    </g>
   </g>
   <g id="matplotlib.axis_2">
    <g id="ytick_1">
     <g id="line2d_17">
      <path clip-path="url(#p2821276aa0)" d="M 135 627.278049 
L 972 627.278049 
" style="fill:none;stroke:#b0b0b0;stroke-linecap:square;stroke-width:0.8;"/>
     </g>
     <g id="line2d_18">
      <defs>
       <path d="M 0 0 
L -3.5 0 
" id="m92b6c40c14" style="stroke:#000000;stroke-width:0.8;"/>
      </defs>
      <g>
       <use style="stroke:#000000;stroke-width:0.8;" x="135" xlink:href="#m92b6c40c14" y="627.278049"/>
      </g>
     </g>
     <g id="text_10">
      <!-- 0 -->
      <g transform="translate(108.9125 638.675705)scale(0.3 -0.3)">
       <use xlink:href="#DejaVuSans-48"/>
      </g>
     </g>
    </g>
    <g id="ytick_2">
     <g id="line2d_19">
      <path clip-path="url(#p2821276aa0)" d="M 135 559.668293 
L 972 559.668293 
" style="fill:none;stroke:#b0b0b0;stroke-linecap:square;stroke-width:0.8;"/>
     </g>
     <g id="line2d_20">
      <g>
       <use style="stroke:#000000;stroke-width:0.8;" x="135" xlink:href="#m92b6c40c14" y="559.668293"/>
      </g>
     </g>
     <g id="text_11">
      <!-- 25 -->
      <defs>
       <path d="M 10.796875 72.90625 
L 49.515625 72.90625 
L 49.515625 64.59375 
L 19.828125 64.59375 
L 19.828125 46.734375 
Q 21.96875 47.46875 24.109375 47.828125 
Q 26.265625 48.1875 28.421875 48.1875 
Q 40.625 48.1875 47.75 41.5 
Q 54.890625 34.8125 54.890625 23.390625 
Q 54.890625 11.625 47.5625 5.09375 
Q 40.234375 -1.421875 26.90625 -1.421875 
Q 22.3125 -1.421875 17.546875 -0.640625 
Q 12.796875 0.140625 7.71875 1.703125 
L 7.71875 11.625 
Q 12.109375 9.234375 16.796875 8.0625 
Q 21.484375 6.890625 26.703125 6.890625 
Q 35.15625 6.890625 40.078125 11.328125 
Q 45.015625 15.765625 45.015625 23.390625 
Q 45.015625 31 40.078125 35.4375 
Q 35.15625 39.890625 26.703125 39.890625 
Q 22.75 39.890625 18.8125 39.015625 
Q 14.890625 38.140625 10.796875 36.28125 
z
" id="DejaVuSans-53"/>
      </defs>
      <g transform="translate(89.825 571.065949)scale(0.3 -0.3)">
       <use xlink:href="#DejaVuSans-50"/>
       <use x="63.623047" xlink:href="#DejaVuSans-53"/>
      </g>
     </g>
    </g>
    <g id="ytick_3">
     <g id="line2d_21">
      <path clip-path="url(#p2821276aa0)" d="M 135 492.058537 
L 972 492.058537 
" style="fill:none;stroke:#b0b0b0;stroke-linecap:square;stroke-width:0.8;"/>
     </g>
     <g id="line2d_22">
      <g>
       <use style="stroke:#000000;stroke-width:0.8;" x="135" xlink:href="#m92b6c40c14" y="492.058537"/>
      </g>
     </g>
     <g id="text_12">
      <!-- 50 -->
      <g transform="translate(89.825 503.456193)scale(0.3 -0.3)">
       <use xlink:href="#DejaVuSans-53"/>
       <use x="63.623047" xlink:href="#DejaVuSans-48"/>
      </g>
     </g>
    </g>
    <g id="ytick_4">
     <g id="line2d_23">
      <path clip-path="url(#p2821276aa0)" d="M 135 424.44878 
L 972 424.44878 
" style="fill:none;stroke:#b0b0b0;stroke-linecap:square;stroke-width:0.8;"/>
     </g>
     <g id="line2d_24">
      <g>
       <use style="stroke:#000000;stroke-width:0.8;" x="135" xlink:href="#m92b6c40c14" y="424.44878"/>
      </g>
     </g>
     <g id="text_13">
      <!-- 75 -->
      <defs>
       <path d="M 8.203125 72.90625 
L 55.078125 72.90625 
L 55.078125 68.703125 
L 28.609375 0 
L 18.3125 0 
L 43.21875 64.59375 
L 8.203125 64.59375 
z
" id="DejaVuSans-55"/>
      </defs>
      <g transform="translate(89.825 435.846437)scale(0.3 -0.3)">
       <use xlink:href="#DejaVuSans-55"/>
       <use x="63.623047" xlink:href="#DejaVuSans-53"/>
      </g>
     </g>
    </g>
    <g id="ytick_5">
     <g id="line2d_25">
      <path clip-path="url(#p2821276aa0)" d="M 135 356.839024 
L 972 356.839024 
" style="fill:none;stroke:#b0b0b0;stroke-linecap:square;stroke-width:0.8;"/>
     </g>
     <g id="line2d_26">
      <g>
       <use style="stroke:#000000;stroke-width:0.8;" x="135" xlink:href="#m92b6c40c14" y="356.839024"/>
      </g>
     </g>
     <g id="text_14">
      <!-- 100 -->
      <g transform="translate(70.7375 368.236681)scale(0.3 -0.3)">
       <use xlink:href="#DejaVuSans-49"/>
       <use x="63.623047" xlink:href="#DejaVuSans-48"/>
       <use x="127.246094" xlink:href="#DejaVuSans-48"/>
      </g>
     </g>
    </g>
    <g id="ytick_6">
     <g id="line2d_27">
      <path clip-path="url(#p2821276aa0)" d="M 135 289.229268 
L 972 289.229268 
" style="fill:none;stroke:#b0b0b0;stroke-linecap:square;stroke-width:0.8;"/>
     </g>
     <g id="line2d_28">
      <g>
       <use style="stroke:#000000;stroke-width:0.8;" x="135" xlink:href="#m92b6c40c14" y="289.229268"/>
      </g>
     </g>
     <g id="text_15">
      <!-- 125 -->
      <g transform="translate(70.7375 300.626925)scale(0.3 -0.3)">
       <use xlink:href="#DejaVuSans-49"/>
       <use x="63.623047" xlink:href="#DejaVuSans-50"/>
       <use x="127.246094" xlink:href="#DejaVuSans-53"/>
      </g>
     </g>
    </g>
    <g id="ytick_7">
     <g id="line2d_29">
      <path clip-path="url(#p2821276aa0)" d="M 135 221.619512 
L 972 221.619512 
" style="fill:none;stroke:#b0b0b0;stroke-linecap:square;stroke-width:0.8;"/>
     </g>
     <g id="line2d_30">
      <g>
       <use style="stroke:#000000;stroke-width:0.8;" x="135" xlink:href="#m92b6c40c14" y="221.619512"/>
      </g>
     </g>
     <g id="text_16">
      <!-- 150 -->
      <g transform="translate(70.7375 233.017168)scale(0.3 -0.3)">
       <use xlink:href="#DejaVuSans-49"/>
       <use x="63.623047" xlink:href="#DejaVuSans-53"/>
       <use x="127.246094" xlink:href="#DejaVuSans-48"/>
      </g>
     </g>
    </g>
    <g id="ytick_8">
     <g id="line2d_31">
      <path clip-path="url(#p2821276aa0)" d="M 135 154.009756 
L 972 154.009756 
" style="fill:none;stroke:#b0b0b0;stroke-linecap:square;stroke-width:0.8;"/>
     </g>
     <g id="line2d_32">
      <g>
       <use style="stroke:#000000;stroke-width:0.8;" x="135" xlink:href="#m92b6c40c14" y="154.009756"/>
      </g>
     </g>
     <g id="text_17">
      <!-- 175 -->
      <g transform="translate(70.7375 165.407412)scale(0.3 -0.3)">
       <use xlink:href="#DejaVuSans-49"/>
       <use x="63.623047" xlink:href="#DejaVuSans-55"/>
       <use x="127.246094" xlink:href="#DejaVuSans-53"/>
      </g>
     </g>
    </g>
    <g id="ytick_9">
     <g id="line2d_33">
      <path clip-path="url(#p2821276aa0)" d="M 135 86.4 
L 972 86.4 
" style="fill:none;stroke:#b0b0b0;stroke-linecap:square;stroke-width:0.8;"/>
     </g>
     <g id="line2d_34">
      <g>
       <use style="stroke:#000000;stroke-width:0.8;" x="135" xlink:href="#m92b6c40c14" y="86.4"/>
      </g>
     </g>
     <g id="text_18">
      <!-- 200 -->
      <g transform="translate(70.7375 97.797656)scale(0.3 -0.3)">
       <use xlink:href="#DejaVuSans-50"/>
       <use x="63.623047" xlink:href="#DejaVuSans-48"/>
       <use x="127.246094" xlink:href="#DejaVuSans-48"/>
      </g>
     </g>
    </g>
    <g id="text_19">
     <!-- Guessing Entropy -->
     <defs>
      <path d="M 59.515625 10.40625 
L 59.515625 29.984375 
L 43.40625 29.984375 
L 43.40625 38.09375 
L 69.28125 38.09375 
L 69.28125 6.78125 
Q 63.578125 2.734375 56.6875 0.65625 
Q 49.8125 -1.421875 42 -1.421875 
Q 24.90625 -1.421875 15.25 8.5625 
Q 5.609375 18.5625 5.609375 36.375 
Q 5.609375 54.25 15.25 64.234375 
Q 24.90625 74.21875 42 74.21875 
Q 49.125 74.21875 55.546875 72.453125 
Q 61.96875 70.703125 67.390625 67.28125 
L 67.390625 56.78125 
Q 61.921875 61.421875 55.765625 63.765625 
Q 49.609375 66.109375 42.828125 66.109375 
Q 29.4375 66.109375 22.71875 58.640625 
Q 16.015625 51.171875 16.015625 36.375 
Q 16.015625 21.625 22.71875 14.15625 
Q 29.4375 6.6875 42.828125 6.6875 
Q 48.046875 6.6875 52.140625 7.59375 
Q 56.25 8.5 59.515625 10.40625 
z
" id="DejaVuSans-71"/>
      <path d="M 9.421875 54.6875 
L 18.40625 54.6875 
L 18.40625 0 
L 9.421875 0 
z
M 9.421875 75.984375 
L 18.40625 75.984375 
L 18.40625 64.59375 
L 9.421875 64.59375 
z
" id="DejaVuSans-105"/>
      <path d="M 54.890625 33.015625 
L 54.890625 0 
L 45.90625 0 
L 45.90625 32.71875 
Q 45.90625 40.484375 42.875 44.328125 
Q 39.84375 48.1875 33.796875 48.1875 
Q 26.515625 48.1875 22.3125 43.546875 
Q 18.109375 38.921875 18.109375 30.90625 
L 18.109375 0 
L 9.078125 0 
L 9.078125 54.6875 
L 18.109375 54.6875 
L 18.109375 46.1875 
Q 21.34375 51.125 25.703125 53.5625 
Q 30.078125 56 35.796875 56 
Q 45.21875 56 50.046875 50.171875 
Q 54.890625 44.34375 54.890625 33.015625 
z
" id="DejaVuSans-110"/>
      <path d="M 45.40625 27.984375 
Q 45.40625 37.75 41.375 43.109375 
Q 37.359375 48.484375 30.078125 48.484375 
Q 22.859375 48.484375 18.828125 43.109375 
Q 14.796875 37.75 14.796875 27.984375 
Q 14.796875 18.265625 18.828125 12.890625 
Q 22.859375 7.515625 30.078125 7.515625 
Q 37.359375 7.515625 41.375 12.890625 
Q 45.40625 18.265625 45.40625 27.984375 
z
M 54.390625 6.78125 
Q 54.390625 -7.171875 48.1875 -13.984375 
Q 42 -20.796875 29.203125 -20.796875 
Q 24.46875 -20.796875 20.265625 -20.09375 
Q 16.0625 -19.390625 12.109375 -17.921875 
L 12.109375 -9.1875 
Q 16.0625 -11.328125 19.921875 -12.34375 
Q 23.78125 -13.375 27.78125 -13.375 
Q 36.625 -13.375 41.015625 -8.765625 
Q 45.40625 -4.15625 45.40625 5.171875 
L 45.40625 9.625 
Q 42.625 4.78125 38.28125 2.390625 
Q 33.9375 0 27.875 0 
Q 17.828125 0 11.671875 7.65625 
Q 5.515625 15.328125 5.515625 27.984375 
Q 5.515625 40.671875 11.671875 48.328125 
Q 17.828125 56 27.875 56 
Q 33.9375 56 38.28125 53.609375 
Q 42.625 51.21875 45.40625 46.390625 
L 45.40625 54.6875 
L 54.390625 54.6875 
z
" id="DejaVuSans-103"/>
      <path d="M 9.8125 72.90625 
L 55.90625 72.90625 
L 55.90625 64.59375 
L 19.671875 64.59375 
L 19.671875 43.015625 
L 54.390625 43.015625 
L 54.390625 34.71875 
L 19.671875 34.71875 
L 19.671875 8.296875 
L 56.78125 8.296875 
L 56.78125 0 
L 9.8125 0 
z
" id="DejaVuSans-69"/>
      <path d="M 18.3125 70.21875 
L 18.3125 54.6875 
L 36.8125 54.6875 
L 36.8125 47.703125 
L 18.3125 47.703125 
L 18.3125 18.015625 
Q 18.3125 11.328125 20.140625 9.421875 
Q 21.96875 7.515625 27.59375 7.515625 
L 36.8125 7.515625 
L 36.8125 0 
L 27.59375 0 
Q 17.1875 0 13.234375 3.875 
Q 9.28125 7.765625 9.28125 18.015625 
L 9.28125 47.703125 
L 2.6875 47.703125 
L 2.6875 54.6875 
L 9.28125 54.6875 
L 9.28125 70.21875 
z
" id="DejaVuSans-116"/>
      <path d="M 18.109375 8.203125 
L 18.109375 -20.796875 
L 9.078125 -20.796875 
L 9.078125 54.6875 
L 18.109375 54.6875 
L 18.109375 46.390625 
Q 20.953125 51.265625 25.265625 53.625 
Q 29.59375 56 35.59375 56 
Q 45.5625 56 51.78125 48.09375 
Q 58.015625 40.1875 58.015625 27.296875 
Q 58.015625 14.40625 51.78125 6.484375 
Q 45.5625 -1.421875 35.59375 -1.421875 
Q 29.59375 -1.421875 25.265625 0.953125 
Q 20.953125 3.328125 18.109375 8.203125 
z
M 48.6875 27.296875 
Q 48.6875 37.203125 44.609375 42.84375 
Q 40.53125 48.484375 33.40625 48.484375 
Q 26.265625 48.484375 22.1875 42.84375 
Q 18.109375 37.203125 18.109375 27.296875 
Q 18.109375 17.390625 22.1875 11.75 
Q 26.265625 6.109375 33.40625 6.109375 
Q 40.53125 6.109375 44.609375 11.75 
Q 48.6875 17.390625 48.6875 27.296875 
z
" id="DejaVuSans-112"/>
      <path d="M 32.171875 -5.078125 
Q 28.375 -14.84375 24.75 -17.8125 
Q 21.140625 -20.796875 15.09375 -20.796875 
L 7.90625 -20.796875 
L 7.90625 -13.28125 
L 13.1875 -13.28125 
Q 16.890625 -13.28125 18.9375 -11.515625 
Q 21 -9.765625 23.484375 -3.21875 
L 25.09375 0.875 
L 2.984375 54.6875 
L 12.5 54.6875 
L 29.59375 11.921875 
L 46.6875 54.6875 
L 56.203125 54.6875 
z
" id="DejaVuSans-121"/>
     </defs>
     <g transform="translate(60.498438 496.155469)rotate(-90)scale(0.3 -0.3)">
      <use xlink:href="#DejaVuSans-71"/>
      <use x="77.490234" xlink:href="#DejaVuSans-117"/>
      <use x="140.869141" xlink:href="#DejaVuSans-101"/>
      <use x="202.392578" xlink:href="#DejaVuSans-115"/>
      <use x="254.492188" xlink:href="#DejaVuSans-115"/>
      <use x="306.591797" xlink:href="#DejaVuSans-105"/>
      <use x="334.375" xlink:href="#DejaVuSans-110"/>
      <use x="397.753906" xlink:href="#DejaVuSans-103"/>
      <use x="461.230469" xlink:href="#DejaVuSans-32"/>
      <use x="493.017578" xlink:href="#DejaVuSans-69"/>
      <use x="556.201172" xlink:href="#DejaVuSans-110"/>
      <use x="619.580078" xlink:href="#DejaVuSans-116"/>
      <use x="658.789062" xlink:href="#DejaVuSans-114"/>
      <use x="699.871094" xlink:href="#DejaVuSans-111"/>
      <use x="761.052734" xlink:href="#DejaVuSans-112"/>
      <use x="824.529297" xlink:href="#DejaVuSans-121"/>
     </g>
    </g>
   </g>
   <g id="line2d_35">
    <path clip-path="url(#p2821276aa0)" d="M 173.045455 327.388215 
L 173.553066 335.74478 
L 174.060677 325.224702 
L 175.58351 363.248429 
L 176.091121 359.435239 
L 176.598732 357.812605 
L 177.106344 363.627044 
L 178.121566 381.773502 
L 178.629177 394.700488 
L 179.136788 386.100527 
L 179.644399 392.347668 
L 180.15201 394.078478 
L 181.167233 411.792234 
L 181.674844 412.982166 
L 182.182455 413.414868 
L 182.690066 422.717971 
L 183.197677 429.803473 
L 183.705288 435.266341 
L 184.2129 439.322927 
L 184.720511 440.566946 
L 185.228122 437.970732 
L 185.735733 434.5632 
L 186.243344 434.644332 
L 186.750955 437.970732 
L 187.258566 435.158166 
L 187.766177 439.566322 
L 188.273789 435.780176 
L 188.7814 436.510361 
L 189.289011 435.104078 
L 189.796622 434.887727 
L 190.304233 435.18521 
L 190.811844 442.514107 
L 191.319455 445.543024 
L 191.827067 449.734829 
L 192.334678 448.598985 
L 192.842289 446.056859 
L 193.3499 444.515356 
L 193.857511 447.165659 
L 194.365122 452.601483 
L 194.872733 451.438595 
L 195.380344 455.359961 
L 195.887956 456.25241 
L 196.395567 460.958049 
L 196.903178 461.769366 
L 197.9184 466.123434 
L 198.426011 471.478127 
L 199.948845 478.076839 
L 200.456456 478.644761 
L 200.964067 483.431532 
L 201.471678 483.756059 
L 202.4869 490.13842 
L 202.994511 490.435902 
L 203.502123 489.759805 
L 204.009734 484.756683 
L 204.517345 487.271766 
L 205.024956 487.569249 
L 205.532567 487.515161 
L 206.040178 490.733385 
L 206.547789 492.35602 
L 207.055401 492.869854 
L 207.563012 492.328976 
L 208.070623 494.681795 
L 208.578234 495.168585 
L 209.085845 498.981776 
L 209.593456 498.062283 
L 211.11629 503.957854 
L 211.623901 503.741502 
L 212.131512 506.554068 
L 212.639123 506.797463 
L 213.146734 508.555317 
L 213.654345 509.393678 
L 214.161956 511.908761 
L 214.669568 511.503102 
L 215.177179 512.206244 
L 215.68479 513.450263 
L 216.192401 516.425093 
L 216.700012 514.937678 
L 217.207623 519.372878 
L 217.715234 519.508098 
L 218.730457 520.481678 
L 219.238068 520.400546 
L 219.745679 520.021932 
L 220.25329 520.130107 
L 220.760901 520.806205 
L 221.268512 522.969717 
L 221.776123 523.591727 
L 222.283735 526.214985 
L 223.298957 528.973463 
L 223.806568 531.0288 
L 224.314179 529.974088 
L 224.82179 529.514341 
L 225.329401 531.786029 
L 225.837013 532.380995 
L 226.344624 533.516839 
L 226.852235 533.408663 
L 227.359846 534.84199 
L 227.867457 535.193561 
L 228.375068 538.817444 
L 228.882679 538.249522 
L 229.39029 535.815571 
L 229.897902 538.492917 
L 230.405513 538.006127 
L 230.913124 538.682224 
L 231.420735 537.627512 
L 231.928346 538.033171 
L 232.435957 539.385366 
L 232.943568 542.360195 
L 233.958791 542.441327 
L 234.466402 545.524332 
L 234.974013 547.228098 
L 235.481624 547.255141 
L 235.989235 547.092878 
L 236.496846 548.309854 
L 237.004458 549.040039 
L 237.512069 550.202927 
L 238.01968 552.041912 
L 238.527291 548.958907 
L 239.034902 549.175259 
L 239.542513 548.715512 
L 240.050124 548.661424 
L 241.065347 548.309854 
L 241.572958 547.092878 
L 242.080569 550.36519 
L 242.58818 550.581541 
L 243.095791 551.176507 
L 243.603402 549.959532 
L 244.618625 555.179005 
L 245.126236 553.718634 
L 246.141458 553.231844 
L 246.649069 553.502283 
L 247.664291 554.692215 
L 248.171902 555.043785 
L 248.679514 556.39598 
L 249.187125 556.585288 
L 249.694736 557.180254 
L 250.202347 559.262634 
L 250.709958 560.317346 
L 251.72518 561.317971 
L 252.232792 564.211668 
L 252.740403 563.833054 
L 253.248014 563.184 
L 253.755625 562.751298 
L 254.263236 564.698459 
L 254.770847 565.672039 
L 255.278458 566.131785 
L 255.78607 567.348761 
L 256.801292 568.619824 
L 257.308903 567.862595 
L 257.816514 567.862595 
L 258.324125 567.6192 
L 258.831736 568.403473 
L 259.339347 568.86322 
L 259.846959 569.133659 
L 260.35457 568.484605 
L 260.862181 566.834927 
L 261.369792 566.99719 
L 261.877403 566.861971 
L 262.385014 568.214166 
L 262.892625 569.160702 
L 263.907848 572.243707 
L 264.415459 572.568234 
L 264.92307 574.380176 
L 265.430681 574.299044 
L 265.938292 574.866966 
L 266.445903 575.002185 
L 266.953514 577.246829 
L 267.461126 577.138654 
L 267.968737 577.246829 
L 268.476348 578.22041 
L 268.983959 579.626693 
L 269.999181 580.410966 
L 270.506792 581.573854 
L 271.014404 581.032976 
L 271.522015 582.0336 
L 272.029626 580.978888 
L 272.537237 581.276371 
L 273.044848 582.087688 
L 273.552459 582.628566 
L 274.06007 582.114732 
L 275.075293 584.2512 
L 275.582904 584.494595 
L 276.090515 586.117229 
L 276.598126 586.387668 
L 277.105737 586.117229 
L 277.613348 586.33358 
L 278.120959 586.739239 
L 278.628571 586.712195 
L 279.136182 585.738615 
L 279.643793 586.820371 
L 280.151404 588.659356 
L 280.659015 588.497093 
L 281.166626 588.956839 
L 281.674237 589.146146 
L 282.181849 587.739863 
L 282.68946 589.687024 
L 283.197071 590.092683 
L 283.704682 590.336078 
L 284.212293 590.76878 
L 284.719904 590.958088 
L 285.227515 590.985132 
L 285.735126 591.931668 
L 286.242738 591.904624 
L 286.750349 592.337327 
L 288.273182 592.98638 
L 288.780793 592.391415 
L 289.288404 592.797073 
L 289.796016 592.959337 
L 290.303627 594.068137 
L 290.811238 593.851785 
L 291.318849 595.3392 
L 292.334071 596.015298 
L 292.841682 595.528507 
L 293.349293 595.636683 
L 293.856905 596.285737 
L 294.364516 596.393912 
L 294.872127 596.93479 
L 295.379738 597.69202 
L 295.887349 598.232898 
L 297.410183 597.124098 
L 298.425405 597.881327 
L 298.933016 598.854907 
L 299.440627 598.286985 
L 299.948238 598.638556 
L 300.455849 599.314654 
L 300.96346 599.503961 
L 301.471072 600.017795 
L 301.978683 599.395785 
L 302.993905 599.233522 
L 303.501516 599.449873 
L 304.009127 600.044839 
L 305.02435 602.046088 
L 306.039572 602.12722 
L 306.547183 602.668098 
L 307.054794 602.641054 
L 308.577628 600.937288 
L 309.085239 600.775024 
L 309.59285 601.451122 
L 310.100461 600.693893 
L 310.608072 600.856156 
L 311.623294 602.181307 
L 312.130905 601.829737 
L 312.638517 601.937912 
L 313.146128 602.397659 
L 313.653739 602.343571 
L 314.16135 602.424702 
L 314.668961 602.776273 
L 315.176572 602.776273 
L 315.684183 603.127844 
L 316.191795 602.938537 
L 316.699406 603.479415 
L 317.207017 604.290732 
L 317.714628 603.425327 
L 318.222239 603.425327 
L 318.72985 603.1008 
L 319.237461 603.479415 
L 319.745072 602.992624 
L 320.252684 603.317151 
L 320.760295 603.993249 
L 321.267906 604.371863 
L 321.775517 604.317776 
L 322.283128 604.83161 
L 322.790739 604.939785 
L 323.29835 605.913366 
L 324.313573 606.210849 
L 324.821184 606.021541 
L 325.328795 606.183805 
L 325.836406 607.265561 
L 326.344017 607.590088 
L 326.851628 607.40078 
L 327.359239 607.590088 
L 327.866851 607.941659 
L 328.374462 607.806439 
L 328.882073 608.455493 
L 329.389684 608.78002 
L 329.897295 608.374361 
L 331.420129 609.456117 
L 331.92774 609.537249 
L 333.450573 610.916488 
L 333.958184 611.051707 
L 334.465795 610.673093 
L 334.973407 611.213971 
L 335.988629 610.537873 
L 337.003851 610.72718 
L 337.511462 610.456741 
L 338.526684 610.72718 
L 339.034296 611.241015 
L 339.541907 610.99762 
L 340.049518 610.591961 
L 341.572351 610.970576 
L 342.079962 612.512078 
L 342.587574 612.430946 
L 343.602796 613.107044 
L 344.618018 613.161132 
L 345.125629 613.729054 
L 345.63324 613.70201 
L 347.156074 614.32402 
L 348.171296 613.837229 
L 348.678907 614.432195 
L 349.694129 614.567415 
L 350.201741 614.946029 
L 350.709352 615.054205 
L 351.216963 614.67559 
L 352.232185 615.135337 
L 352.739796 614.729678 
L 353.247407 615.000117 
L 353.755018 615.081249 
L 354.26263 615.027161 
L 354.770241 615.405776 
L 355.277852 615.513951 
L 355.785463 615.270556 
L 356.293074 615.43282 
L 356.800685 615.027161 
L 357.308296 615.270556 
L 357.815908 614.702634 
L 358.323519 614.648546 
L 358.83113 615.216468 
L 360.353963 615.973698 
L 360.861574 615.91961 
L 361.369186 616.244137 
L 361.876797 615.838478 
L 362.384408 616.163005 
L 363.39963 616.000741 
L 364.414852 615.973698 
L 364.922463 616.217093 
L 365.430075 616.190049 
L 365.937686 616.298224 
L 366.445297 616.108917 
L 367.96813 616.163005 
L 368.475741 616.352312 
L 368.983353 616.730927 
L 369.490964 616.730927 
L 369.998575 616.54162 
L 370.506186 616.947278 
L 371.521408 617.244761 
L 372.029019 617.623376 
L 372.53663 617.352937 
L 373.044242 617.542244 
L 373.551853 618.380605 
L 374.567075 617.785639 
L 375.582297 617.5152 
L 376.089908 618.083122 
L 377.612742 619.002615 
L 378.120353 618.651044 
L 378.627964 618.569912 
L 379.135575 618.894439 
L 379.643186 618.732176 
L 380.150798 618.705132 
L 380.658409 618.299473 
L 381.16602 618.894439 
L 382.181242 618.813307 
L 382.688853 619.083746 
L 383.196464 619.164878 
L 383.704075 618.569912 
L 384.211687 619.191922 
L 384.719298 618.948527 
L 385.226909 619.11079 
L 385.73452 618.840351 
L 386.242131 619.164878 
L 387.257353 619.083746 
L 387.764965 619.327141 
L 388.780187 619.462361 
L 389.287798 619.191922 
L 389.795409 619.516449 
L 390.810631 619.813932 
L 391.318242 620.192546 
L 391.825854 620.003239 
L 392.333465 620.111415 
L 392.841076 620.057327 
L 393.348687 620.327766 
L 394.363909 620.246634 
L 395.379132 619.624624 
L 396.394354 619.516449 
L 396.901965 619.786888 
L 397.409576 619.59758 
L 397.917187 619.7328 
L 398.424798 619.570537 
L 399.440021 619.895063 
L 399.947632 619.7328 
L 400.455243 620.003239 
L 400.962854 619.813932 
L 402.485687 620.165502 
L 402.993299 620.057327 
L 404.516132 620.435941 
L 405.023743 620.192546 
L 406.546577 620.192546 
L 407.054188 619.949151 
L 407.561799 620.21959 
L 408.06941 620.084371 
L 409.084632 620.571161 
L 410.099854 620.517073 
L 410.607466 620.544117 
L 411.115077 620.35481 
L 411.622688 620.598205 
L 412.130299 620.462985 
L 412.63791 620.868644 
L 413.145521 620.760468 
L 413.653132 620.8416 
L 414.668355 621.355434 
L 415.175966 621.32839 
L 415.683577 621.490654 
L 416.191188 621.517698 
L 416.698799 621.734049 
L 418.221633 621.571785 
L 418.729244 621.842224 
L 419.236855 621.977444 
L 420.252077 622.545366 
L 420.759688 622.707629 
L 422.790133 622.599454 
L 423.805355 622.978068 
L 424.820577 622.788761 
L 425.328188 622.815805 
L 426.343411 622.653541 
L 426.851022 622.653541 
L 427.358633 622.951024 
L 427.866244 623.0592 
L 428.881466 623.113288 
L 431.927133 623.005112 
L 432.434744 622.92398 
L 432.942356 623.086244 
L 433.957578 622.978068 
L 434.465189 623.0592 
L 434.9728 623.302595 
L 435.480411 623.167376 
L 435.988022 623.383727 
L 437.510856 623.356683 
L 438.018467 623.356683 
L 439.033689 623.978693 
L 439.5413 623.897561 
L 440.556523 624.168 
L 441.064134 624.03278 
L 444.1098 624.30322 
L 446.140245 624.03278 
L 448.678301 624.005737 
L 449.185912 623.897561 
L 451.216356 623.897561 
L 451.723967 623.762341 
L 452.231579 623.951649 
L 452.73919 623.870517 
L 453.246801 624.113912 
L 453.754412 624.168 
L 454.262023 624.03278 
L 454.769634 624.03278 
L 455.277245 624.276176 
L 455.784857 624.059824 
L 456.292468 624.03278 
L 457.30769 624.411395 
L 458.322912 624.546615 
L 458.830523 624.519571 
L 459.845746 624.735922 
L 461.87619 624.600702 
L 462.891412 624.762966 
L 463.399024 624.708878 
L 463.906635 624.871141 
L 466.952302 625.006361 
L 467.459913 625.2768 
L 470.505579 625.547239 
L 471.013191 625.303844 
L 471.520802 625.357932 
L 472.028413 625.195668 
L 472.536024 625.357932 
L 473.551246 625.303844 
L 474.058857 625.41202 
L 474.566469 625.682459 
L 475.07408 625.628371 
L 475.581691 625.736546 
L 478.119746 625.682459 
L 479.134969 625.709502 
L 484.21108 625.655415 
L 485.226302 625.520195 
L 486.241525 625.655415 
L 486.749136 625.817678 
L 487.256747 625.655415 
L 487.764358 625.628371 
L 488.271969 625.790634 
L 489.794803 625.709502 
L 490.302414 625.709502 
L 490.810025 625.844722 
L 491.317636 625.736546 
L 492.332858 626.006985 
L 493.348081 625.844722 
L 494.870914 625.817678 
L 496.393747 625.817678 
L 496.901358 625.952898 
L 498.424192 625.979941 
L 499.439414 626.115161 
L 499.947025 626.006985 
L 501.97747 626.034029 
L 503.500303 626.061073 
L 505.023137 625.979941 
L 506.54597 625.89881 
L 511.622081 626.088117 
L 513.652526 625.979941 
L 514.160137 626.115161 
L 515.68297 626.088117 
L 516.190582 626.277424 
L 518.221026 626.3856 
L 519.74386 626.331512 
L 520.251471 626.223337 
L 521.774304 626.3856 
L 527.865638 626.683083 
L 528.88086 626.628995 
L 533.44936 626.764215 
L 535.987416 626.737171 
L 540.555916 626.628995 
L 543.093972 626.601951 
L 545.124416 626.628995 
L 547.154861 626.493776 
L 563.906028 626.601951 
L 565.936473 626.628995 
L 567.459306 626.547863 
L 568.98214 626.601951 
L 569.997362 626.466732 
L 572.535418 626.52082 
L 575.073473 626.493776 
L 579.641973 626.628995 
L 583.195251 626.710127 
L 586.240918 626.926478 
L 612.636697 627.034654 
L 615.682364 627.088741 
L 630.403087 627.196917 
L 632.941143 627.223961 
L 635.986809 627.169873 
L 638.017254 627.223961 
L 639.032476 627.142829 
L 730.40248 627.251005 
L 732.432925 627.251005 
L 933.954545 627.278049 
L 933.954545 627.278049 
" style="fill:none;stroke:#1f77b4;stroke-linecap:square;stroke-width:1.5;"/>
   </g>
   <g id="patch_3">
    <path d="M 135 640.8 
L 135 86.4 
" style="fill:none;stroke:#000000;stroke-linecap:square;stroke-linejoin:miter;stroke-width:0.8;"/>
   </g>
   <g id="patch_4">
    <path d="M 972 640.8 
L 972 86.4 
" style="fill:none;stroke:#000000;stroke-linecap:square;stroke-linejoin:miter;stroke-width:0.8;"/>
   </g>
   <g id="patch_5">
    <path d="M 135 640.8 
L 972 640.8 
" style="fill:none;stroke:#000000;stroke-linecap:square;stroke-linejoin:miter;stroke-width:0.8;"/>
   </g>
   <g id="patch_6">
    <path d="M 135 86.4 
L 972 86.4 
" style="fill:none;stroke:#000000;stroke-linecap:square;stroke-linejoin:miter;stroke-width:0.8;"/>
   </g>
  </g>
 </g>
 <defs>
  <clipPath id="p2821276aa0">
   <rect height="554.4" width="837" x="135" y="86.4"/>
  </clipPath>
 </defs>
</svg>
